Upgrade_Try-Bold_Italic.ufo
<glyph name="exclam" format="2">
  <advance width="289"/>
  <unicode hex="0021"/>
  <outline>
    <contour>
      <point x="94" y="220" type="line"/>
      <point x="258" y="220" type="line"/>
      <point x="327" y="716" type="line"/>
      <point x="163" y="716" type="line"/>
    </contour>
    <contour>
      <point x="62" y="0" type="line"/>
      <point x="226" y="0" type="line"/>
      <point x="248" y="148" type="line"/>
      <point x="84" y="148" type="line"/>
    </contour>
  </outline>
</glyph>
<glyph name="dollar" format="2">
  <advance width="565"/>
  <unicode hex="0024"/>
  <outline>
    <contour>
      <point x="254" y="351" type="line" smooth="yes"/>
      <point x="394" y="351" type="line" smooth="yes"/>
      <point x="452" y="762" type="line" smooth="yes"/>
      <point x="312" y="762" type="line" smooth="yes"/>
    </contour>
    <contour>
      <point x="192" y="-102" type="line"/>
      <point x="332" y="-102" type="line"/>
      <point x="394" y="340" type="line"/>
      <point x="254" y="340" type="line"/>
    </contour>
    <component base="S" xOffset="8" yOffset="-1"/>
  </outline>
</glyph>
<glyph name="ampersand" format="2">
  <advance width="657"/>
  <unicode hex="0026"/>
  <outline>
    <contour>
      <point x="500" y="-78" type="curve" smooth="yes"/>
      <point x="540" y="-78"/>
      <point x="579" y="-71"/>
      <point x="617" y="-56" type="curve"/>
      <point x="637" y="87" type="line"/>
      <point x="621" y="78"/>
      <point x="605" y="74"/>
      <point x="590" y="74" type="curve" smooth="yes"/>
      <point x="564" y="74"/>
      <point x="550" y="90"/>
      <point x="554" y="120" type="curve" smooth="yes"/>
      <point x="574" y="262" type="line"/>
      <point x="662" y="262" type="line"/>
      <point x="682" y="405" type="line"/>
      <point x="594" y="405" type="line"/>
      <point x="611" y="522" type="line"/>
      <point x="440" y="522" type="line"/>
      <point x="424" y="405" type="line"/>
      <point x="370" y="405" type="line" smooth="yes"/>
      <point x="317" y="405"/>
      <point x="288" y="430"/>
      <point x="288" y="463" type="curve" smooth="yes"/>
      <point x="288" y="504"/>
      <point x="316" y="529"/>
      <point x="375" y="529" type="curve" smooth="yes"/>
      <point x="420" y="529"/>
      <point x="478" y="512"/>
      <point x="519" y="490" type="curve"/>
      <point x="540" y="640" type="line"/>
      <point x="486" y="662"/>
      <point x="423" y="674"/>
      <point x="364" y="674" type="curve" smooth="yes"/>
      <point x="192" y="674"/>
      <point x="108" y="591"/>
      <point x="108" y="480" type="curve" smooth="yes"/>
      <point x="108" y="401"/>
      <point x="150" y="346"/>
      <point x="244" y="318" type="curve"/>
      <point x="247" y="338" type="line"/>
      <point x="121" y="319"/>
      <point x="66" y="236"/>
      <point x="66" y="151" type="curve" smooth="yes"/>
      <point x="66" y="40"/>
      <point x="144" y="-13"/>
      <point x="230" y="-13" type="curve" smooth="yes"/>
      <point x="294" y="-13"/>
      <point x="352" y="17"/>
      <point x="390" y="92" type="curve"/>
      <point x="380" y="50" type="line"/>
      <point x="378" y="32" type="line" smooth="yes"/>
      <point x="369" y="-38"/>
      <point x="425" y="-78"/>
    </contour>
    <contour>
      <point x="316" y="142" type="curve" smooth="yes"/>
      <point x="276" y="142"/>
      <point x="258" y="165"/>
      <point x="258" y="195" type="curve" smooth="yes"/>
      <point x="258" y="238"/>
      <point x="290" y="262"/>
      <point x="356" y="262" type="curve" smooth="yes"/>
      <point x="404" y="262" type="line"/>
      <point x="400" y="235" type="line" smooth="yes"/>
      <point x="392" y="166"/>
      <point x="349" y="142"/>
    </contour>
  </outline>
</glyph>
<glyph name="parenleft" format="2">
  <advance width="418"/>
  <unicode hex="0028"/>
  <outline>
    <contour>
      <point x="198" y="-215" type="curve"/>
      <point x="376" y="-215" type="line"/>
      <point x="295" y="-68"/>
      <point x="258" y="66"/>
      <point x="258" y="198" type="curve" smooth="yes"/>
      <point x="258" y="388"/>
      <point x="342" y="568"/>
      <point x="502" y="716" type="curve"/>
      <point x="314" y="716" type="line"/>
      <point x="166" y="574"/>
      <point x="86" y="394"/>
      <point x="86" y="196" type="curve" smooth="yes"/>
      <point x="86" y="56"/>
      <point x="124" y="-78"/>
    </contour>
  </outline>
</glyph>
<glyph name="parenright" format="2">
  <advance width="418"/>
  <unicode hex="0029"/>
  <outline>
    <contour>
      <point x="-12" y="-215" type="curve"/>
      <point x="176" y="-215" type="line"/>
      <point x="320" y="-76"/>
      <point x="402" y="107"/>
      <point x="402" y="305" type="curve" smooth="yes"/>
      <point x="402" y="444"/>
      <point x="364" y="578"/>
      <point x="290" y="716" type="curve"/>
      <point x="112" y="716" type="line"/>
      <point x="193" y="569"/>
      <point x="230" y="435"/>
      <point x="230" y="304" type="curve" smooth="yes"/>
      <point x="230" y="114"/>
      <point x="147" y="-66"/>
    </contour>
  </outline>
</glyph>
<glyph name="comma" format="2">
  <advance width="271"/>
  <unicode hex="002C"/>
  <outline>
    <contour>
      <point x="104" y="-192" type="line"/>
      <point x="160" y="-146"/>
      <point x="211" y="-71"/>
      <point x="230" y="61" type="curve" smooth="yes"/>
      <point x="244" y="160" type="line"/>
      <point x="80" y="160" type="line"/>
      <point x="65" y="56" type="line" smooth="yes"/>
      <point x="53" y="-29"/>
      <point x="34" y="-76"/>
      <point x="-12" y="-141" type="curve"/>
    </contour>
  </outline>
</glyph>
<glyph name="hyphen" format="2">
  <advance width="376"/>
  <unicode hex="002D"/>
  <unicode hex="00AD"/>
  <unicode hex="2010"/>
  <outline>
    <contour>
      <point x="72" y="176" type="line"/>
      <point x="352" y="176" type="line"/>
      <point x="372" y="308" type="line"/>
      <point x="92" y="308" type="line"/>
    </contour>
  </outline>
</glyph>
<glyph name="period" format="2">
  <advance width="260"/>
  <unicode hex="002E"/>
  <outline>
    <contour>
      <point x="50" y="0" type="line"/>
      <point x="210" y="0" type="line"/>
      <point x="232" y="160" type="line"/>
      <point x="72" y="160" type="line"/>
    </contour>
  </outline>
</glyph>
<glyph name="slash" format="2">
  <advance width="514"/>
  <unicode hex="002F"/>
  <outline>
    <contour>
      <point x="26" y="0" type="line"/>
      <point x="185" y="0" type="line"/>
      <point x="590" y="716" type="line"/>
      <point x="430" y="716" type="line"/>
    </contour>
  </outline>
</glyph>
<glyph name="zero" format="2">
  <advance width="649"/>
  <unicode hex="0030"/>
  <anchor x="372" y="456" name="top"/>
  <outline>
    <contour>
      <point x="346" y="-16" type="curve" smooth="yes"/>
      <point x="532" y="-16"/>
      <point x="658" y="148"/>
      <point x="658" y="392" type="curve" smooth="yes"/>
      <point x="658" y="562"/>
      <point x="558" y="676"/>
      <point x="396" y="676" type="curve" smooth="yes"/>
      <point x="209" y="676"/>
      <point x="84" y="512"/>
      <point x="84" y="266" type="curve" smooth="yes"/>
      <point x="84" y="92"/>
      <point x="184" y="-16"/>
    </contour>
    <contour>
      <point x="349" y="144" type="curve" smooth="yes"/>
      <point x="296" y="144"/>
      <point x="266" y="190"/>
      <point x="266" y="272" type="curve" smooth="yes"/>
      <point x="266" y="410"/>
      <point x="314" y="516"/>
      <point x="394" y="516" type="curve" smooth="yes"/>
      <point x="446" y="516"/>
      <point x="476" y="468"/>
      <point x="476" y="384" type="curve" smooth="yes"/>
      <point x="476" y="242"/>
      <point x="424" y="144"/>
    </contour>
  </outline>
</glyph>
<glyph name="one" format="2">
  <advance width="410"/>
  <unicode hex="0031"/>
  <outline>
    <contour>
      <point x="144" y="0" type="line"/>
      <point x="320" y="0" type="line"/>
      <point x="416" y="676" type="line"/>
      <point x="121" y="648" type="line"/>
      <point x="97" y="474" type="line"/>
      <point x="212" y="488" type="line"/>
    </contour>
  </outline>
</glyph>
<glyph name="two" format="2">
  <advance width="547"/>
  <unicode hex="0032"/>
  <outline>
    <contour>
      <point x="48" y="0" type="line"/>
      <point x="496" y="0" type="line"/>
      <point x="520" y="164" type="line"/>
      <point x="123" y="164" type="line"/>
      <point x="198" y="145" type="line"/>
      <point x="299" y="178" type="line" smooth="yes"/>
      <point x="459" y="232"/>
      <point x="566" y="352"/>
      <point x="566" y="482" type="curve" smooth="yes"/>
      <point x="566" y="600"/>
      <point x="488" y="676"/>
      <point x="341" y="676" type="curve" smooth="yes"/>
      <point x="276" y="676"/>
      <point x="206" y="660"/>
      <point x="152" y="633" type="curve"/>
      <point x="128" y="460" type="line"/>
      <point x="183" y="494"/>
      <point x="242" y="512"/>
      <point x="299" y="512" type="curve" smooth="yes"/>
      <point x="351" y="512"/>
      <point x="383" y="484"/>
      <point x="383" y="439" type="curve" smooth="yes"/>
      <point x="383" y="358"/>
      <point x="294" y="282"/>
      <point x="134" y="234" type="curve" smooth="yes"/>
      <point x="78" y="218" type="line"/>
    </contour>
  </outline>
</glyph>
<glyph name="three" format="2">
  <advance width="534"/>
  <unicode hex="0033"/>
  <outline>
    <contour>
      <point x="254" y="-13" type="curve" smooth="yes"/>
      <point x="417" y="-13"/>
      <point x="512" y="60"/>
      <point x="512" y="187" type="curve" smooth="yes"/>
      <point x="512" y="268"/>
      <point x="462" y="322"/>
      <point x="379" y="340" type="curve"/>
      <point x="380" y="327" type="line"/>
      <point x="482" y="345"/>
      <point x="548" y="426"/>
      <point x="548" y="510" type="curve" smooth="yes"/>
      <point x="548" y="620"/>
      <point x="464" y="674"/>
      <point x="341" y="674" type="curve" smooth="yes"/>
      <point x="274" y="674"/>
      <point x="217" y="661"/>
      <point x="152" y="635" type="curve"/>
      <point x="128" y="472" type="line"/>
      <point x="182" y="501"/>
      <point x="234" y="516"/>
      <point x="288" y="516" type="curve" smooth="yes"/>
      <point x="336" y="516"/>
      <point x="362" y="499"/>
      <point x="362" y="468" type="curve" smooth="yes"/>
      <point x="362" y="425"/>
      <point x="322" y="400"/>
      <point x="248" y="400" type="curve" smooth="yes"/>
      <point x="206" y="400" type="line"/>
      <point x="187" y="262" type="line"/>
      <point x="236" y="262" type="line" smooth="yes"/>
      <point x="298" y="262"/>
      <point x="333" y="240"/>
      <point x="333" y="204" type="curve" smooth="yes"/>
      <point x="333" y="167"/>
      <point x="300" y="147"/>
      <point x="240" y="147" type="curve" smooth="yes"/>
      <point x="178" y="147"/>
      <point x="122" y="163"/>
      <point x="73" y="192" type="curve"/>
      <point x="50" y="30" type="line"/>
      <point x="114" y="0"/>
      <point x="178" y="-13"/>
    </contour>
  </outline>
</glyph>
<glyph name="four" format="2">
  <advance width="618"/>
  <unicode hex="0034"/>
  <outline>
    <contour>
      <point x="326" y="0" type="line"/>
      <point x="498" y="0" type="line"/>
      <point x="517" y="135" type="line"/>
      <point x="596" y="135" type="line"/>
      <point x="616" y="284" type="line"/>
      <point x="538" y="284" type="line"/>
      <point x="591" y="662" type="line"/>
      <point x="357" y="662" type="line"/>
      <point x="78" y="270" type="line"/>
      <point x="59" y="136" type="line"/>
      <point x="345" y="136" type="line"/>
    </contour>
    <contour>
      <point x="366" y="284" type="line"/>
      <point x="248" y="284" type="line"/>
      <point x="396" y="494" type="line"/>
    </contour>
  </outline>
</glyph>
<glyph name="five" format="2">
  <advance width="552"/>
  <unicode hex="0035"/>
  <outline>
    <contour>
      <point x="233" y="-12" type="curve" smooth="yes"/>
      <point x="418" y="-12"/>
      <point x="533" y="79"/>
      <point x="533" y="232" type="curve" smooth="yes"/>
      <point x="533" y="342"/>
      <point x="452" y="413"/>
      <point x="317" y="413" type="curve" smooth="yes"/>
      <point x="290" y="413"/>
      <point x="264" y="412"/>
      <point x="247" y="408" type="curve"/>
      <point x="261" y="396" type="line"/>
      <point x="280" y="496" type="line"/>
      <point x="546" y="496" type="line"/>
      <point x="570" y="662" type="line"/>
      <point x="160" y="662" type="line"/>
      <point x="83" y="249" type="line"/>
      <point x="136" y="258"/>
      <point x="195" y="266"/>
      <point x="249" y="266" type="curve" smooth="yes"/>
      <point x="314" y="266"/>
      <point x="346" y="244"/>
      <point x="346" y="206" type="curve" smooth="yes"/>
      <point x="346" y="163"/>
      <point x="310" y="139"/>
      <point x="238" y="139" type="curve" smooth="yes"/>
      <point x="178" y="139"/>
      <point x="124" y="152"/>
      <point x="74" y="182" type="curve"/>
      <point x="52" y="28" type="line"/>
      <point x="104" y="2"/>
      <point x="166" y="-12"/>
    </contour>
  </outline>
</glyph>
<glyph name="seven" format="2">
  <advance width="542"/>
  <unicode hex="0037"/>
  <outline>
    <contour>
      <point x="103" y="0" type="line" smooth="yes"/>
      <point x="288" y="0" type="line" smooth="yes"/>
      <point x="578" y="536" type="line" smooth="yes"/>
      <point x="596" y="662" type="line" smooth="yes"/>
      <point x="134" y="662" type="line"/>
      <point x="110" y="496" type="line"/>
      <point x="506" y="496" type="line" smooth="yes"/>
      <point x="404" y="536" type="line" smooth="yes"/>
    </contour>
  </outline>
</glyph>
<glyph name="question" format="2">
  <advance width="484"/>
  <unicode hex="003F"/>
  <outline>
    <contour>
      <point x="140" y="0" type="line"/>
      <point x="304" y="0" type="line"/>
      <point x="324" y="148" type="line"/>
      <point x="160" y="148" type="line"/>
    </contour>
    <contour>
      <point x="174" y="220" type="curve"/>
      <point x="328" y="220" type="line"/>
      <point x="337" y="272"/>
      <point x="361" y="315"/>
      <point x="414" y="362" type="curve" smooth="yes"/>
      <point x="491" y="428"/>
      <point x="526" y="488"/>
      <point x="526" y="552" type="curve" smooth="yes"/>
      <point x="526" y="655"/>
      <point x="448" y="716"/>
      <point x="320" y="716" type="curve" smooth="yes"/>
      <point x="256" y="716"/>
      <point x="184" y="703"/>
      <point x="130" y="683" type="curve"/>
      <point x="108" y="528" type="line"/>
      <point x="154" y="552"/>
      <point x="206" y="565"/>
      <point x="256" y="565" type="curve" smooth="yes"/>
      <point x="309" y="565"/>
      <point x="342" y="542"/>
      <point x="342" y="506" type="curve" smooth="yes"/>
      <point x="342" y="478"/>
      <point x="327" y="453"/>
      <point x="280" y="412" type="curve" smooth="yes"/>
      <point x="216" y="354"/>
      <point x="185" y="298"/>
    </contour>
  </outline>
</glyph>
<glyph name="at" format="2">
  <advance width="806"/>
  <unicode hex="0040"/>
  <outline>
    <contour>
      <point x="395" y="-78" type="curve" smooth="yes"/>
      <point x="449" y="-78"/>
      <point x="516" y="-64"/>
      <point x="566" y="-44" type="curve"/>
      <point x="574" y="62" type="line"/>
      <point x="528" y="37"/>
      <point x="454" y="18"/>
      <point x="398" y="18" type="curve" smooth="yes"/>
      <point x="263" y="18"/>
      <point x="180" y="109"/>
      <point x="180" y="238" type="curve" smooth="yes"/>
      <point x="180" y="409"/>
      <point x="298" y="537"/>
      <point x="488" y="537" type="curve" smooth="yes"/>
      <point x="624" y="537"/>
      <point x="708" y="454"/>
      <point x="708" y="344" type="curve" smooth="yes"/>
      <point x="708" y="259"/>
      <point x="680" y="195"/>
      <point x="631" y="195" type="curve" smooth="yes"/>
      <point x="594" y="195"/>
      <point x="572" y="228"/>
      <point x="578" y="272" type="curve" smooth="yes"/>
      <point x="599" y="422" type="line"/>
      <point x="558" y="438"/>
      <point x="508" y="449"/>
      <point x="468" y="449" type="curve" smooth="yes"/>
      <point x="356" y="449"/>
      <point x="266" y="360"/>
      <point x="266" y="240" type="curve" smooth="yes"/>
      <point x="266" y="152"/>
      <point x="316" y="104"/>
      <point x="387" y="104" type="curve" smooth="yes"/>
      <point x="434" y="104"/>
      <point x="485" y="128"/>
      <point x="510" y="184" type="curve"/>
      <point x="495" y="186" type="line"/>
      <point x="522" y="124"/>
      <point x="575" y="104"/>
      <point x="622" y="104" type="curve" smooth="yes"/>
      <point x="728" y="104"/>
      <point x="808" y="198"/>
      <point x="808" y="349" type="curve" smooth="yes"/>
      <point x="808" y="524"/>
      <point x="671" y="632"/>
      <point x="488" y="632" type="curve" smooth="yes"/>
      <point x="254" y="632"/>
      <point x="80" y="472"/>
      <point x="80" y="236" type="curve" smooth="yes"/>
      <point x="80" y="39"/>
      <point x="214" y="-78"/>
    </contour>
    <contour>
      <point x="419" y="208" type="curve" smooth="yes"/>
      <point x="391" y="208"/>
      <point x="376" y="230"/>
      <point x="376" y="260" type="curve" smooth="yes"/>
      <point x="376" y="311"/>
      <point x="406" y="350"/>
      <point x="451" y="350" type="curve" smooth="yes"/>
      <point x="467" y="350"/>
      <point x="478" y="348"/>
      <point x="489" y="344" type="curve"/>
      <point x="482" y="294" type="line" smooth="yes"/>
      <point x="475" y="246"/>
      <point x="448" y="208"/>
    </contour>
  </outline>
</glyph>
<glyph name="A" format="2">
  <advance width="722"/>
  <unicode hex="0041"/>
  <anchor x="448" y="642" name="top"/>
  <anchor x="680" y="16" name="ogonek"/>
  <outline>
    <contour>
      <point x="14" y="0" type="line"/>
      <point x="191" y="0" type="line"/>
      <point x="252" y="118" type="line"/>
      <point x="231" y="118" type="line"/>
      <point x="524" y="118" type="line"/>
      <point x="496" y="118" type="line"/>
      <point x="524" y="0" type="line"/>
      <point x="708" y="0" type="line"/>
      <point x="538" y="658" type="line"/>
      <point x="368" y="658" type="line"/>
    </contour>
    <contour>
      <point x="318" y="248" type="line"/>
      <point x="362" y="332" type="line"/>
      <point x="440" y="493" type="line"/>
      <point x="413" y="493" type="line"/>
      <point x="446" y="332" type="line"/>
      <point x="466" y="248" type="line"/>
      <point x="492" y="248" type="line"/>
      <point x="296" y="248" type="line"/>
    </contour>
  </outline>
</glyph>
<glyph name="B" format="2">
  <advance width="592"/>
  <unicode hex="0042"/>
  <outline>
    <contour>
      <point x="62" y="0" type="line"/>
      <point x="316" y="0" type="line" smooth="yes"/>
      <point x="488" y="0"/>
      <point x="581" y="76"/>
      <point x="581" y="198" type="curve" smooth="yes"/>
      <point x="581" y="282"/>
      <point x="522" y="332"/>
      <point x="422" y="340" type="curve"/>
      <point x="418" y="321" type="line"/>
      <point x="535" y="336"/>
      <point x="600" y="408"/>
      <point x="600" y="507" type="curve" smooth="yes"/>
      <point x="600" y="602"/>
      <point x="530" y="658"/>
      <point x="394" y="658" type="curve" smooth="yes"/>
      <point x="154" y="658" type="line"/>
    </contour>
    <contour>
      <point x="293" y="393" type="line"/>
      <point x="312" y="526" type="line"/>
      <point x="357" y="526" type="line" smooth="yes"/>
      <point x="398" y="526"/>
      <point x="419" y="505"/>
      <point x="419" y="468" type="curve" smooth="yes"/>
      <point x="419" y="422"/>
      <point x="392" y="393"/>
      <point x="341" y="393" type="curve" smooth="yes"/>
    </contour>
    <contour>
      <point x="258" y="138" type="line"/>
      <point x="276" y="273" type="line"/>
      <point x="332" y="273" type="line" smooth="yes"/>
      <point x="378" y="273"/>
      <point x="402" y="252"/>
      <point x="402" y="214" type="curve" smooth="yes"/>
      <point x="402" y="166"/>
      <point x="373" y="138"/>
      <point x="316" y="138" type="curve" smooth="yes"/>
    </contour>
  </outline>
</glyph>
<glyph name="C" format="2">
  <advance width="654"/>
  <unicode hex="0043"/>
  <anchor x="493" y="652" name="top"/>
  <anchor x="384" y="8" name="bottom"/>
  <outline>
    <contour>
      <point x="416" y="-14" type="curve" smooth="yes"/>
      <point x="484" y="-14"/>
      <point x="550" y="2"/>
      <point x="616" y="35" type="curve"/>
      <point x="639" y="203" type="line"/>
      <point x="574" y="164"/>
      <point x="510" y="144"/>
      <point x="436" y="144" type="curve" smooth="yes"/>
      <point x="334" y="144"/>
      <point x="270" y="208"/>
      <point x="270" y="300" type="curve" smooth="yes"/>
      <point x="270" y="426"/>
      <point x="351" y="514"/>
      <point x="482" y="514" type="curve" smooth="yes"/>
      <point x="552" y="514"/>
      <point x="611" y="496"/>
      <point x="668" y="460" type="curve"/>
      <point x="692" y="626" type="line"/>
      <point x="631" y="658"/>
      <point x="566" y="672"/>
      <point x="492" y="672" type="curve" smooth="yes"/>
      <point x="251" y="672"/>
      <point x="87" y="518"/>
      <point x="87" y="288" type="curve" smooth="yes"/>
      <point x="87" y="102"/>
      <point x="214" y="-14"/>
    </contour>
  </outline>
</glyph>
<glyph name="D" format="2">
  <advance width="710"/>
  <unicode hex="0044"/>
  <anchor x="374" y="642" name="top"/>
  <outline>
    <contour>
      <point x="62" y="0" type="line"/>
      <point x="300" y="0" type="line" smooth="yes"/>
      <point x="556" y="0"/>
      <point x="716" y="153"/>
      <point x="716" y="370" type="curve" smooth="yes"/>
      <point x="716" y="538"/>
      <point x="594" y="658"/>
      <point x="394" y="658" type="curve" smooth="yes"/>
      <point x="154" y="658" type="line"/>
    </contour>
    <contour>
      <point x="260" y="159" type="line"/>
      <point x="308" y="499" type="line"/>
      <point x="372" y="499" type="line" smooth="yes"/>
      <point x="472" y="499"/>
      <point x="532" y="440"/>
      <point x="532" y="358" type="curve" smooth="yes"/>
      <point x="532" y="242"/>
      <point x="453" y="159"/>
      <point x="320" y="159" type="curve" smooth="yes"/>
    </contour>
  </outline>
</glyph>
<glyph name="E" format="2">
  <advance width="535"/>
  <unicode hex="0045"/>
  <anchor x="360" y="642" name="top"/>
  <anchor x="482" y="16" name="ogonek"/>
  <outline>
    <contour>
      <point x="62" y="0" type="line"/>
      <point x="483" y="0" type="line"/>
      <point x="506" y="158" type="line"/>
      <point x="261" y="158" type="line"/>
      <point x="276" y="261" type="line"/>
      <point x="500" y="261" type="line"/>
      <point x="520" y="402" type="line"/>
      <point x="296" y="402" type="line"/>
      <point x="310" y="500" type="line"/>
      <point x="544" y="500" type="line"/>
      <point x="566" y="658" type="line"/>
      <point x="155" y="658" type="line"/>
    </contour>
  </outline>
</glyph>
<glyph name="F" format="2">
  <advance width="488"/>
  <unicode hex="0046"/>
  <outline>
    <contour>
      <point x="62" y="0" type="line"/>
      <point x="238" y="0" type="line"/>
      <point x="272" y="242" type="line"/>
      <point x="467" y="242" type="line"/>
      <point x="488" y="394" type="line"/>
      <point x="294" y="394" type="line"/>
      <point x="308" y="500" type="line"/>
      <point x="522" y="500" type="line"/>
      <point x="544" y="658" type="line"/>
      <point x="155" y="658" type="line"/>
    </contour>
  </outline>
</glyph>
<glyph name="G" format="2">
  <advance width="715"/>
  <unicode hex="0047"/>
  <anchor x="480" y="652" name="top"/>
  <anchor x="424" y="8" name="bottom"/>
  <outline>
    <contour>
      <point x="422" y="-14" type="curve" smooth="yes"/>
      <point x="506" y="-14"/>
      <point x="586" y="4"/>
      <point x="670" y="39" type="curve"/>
      <point x="719" y="384" type="line"/>
      <point x="428" y="384" type="line"/>
      <point x="408" y="244" type="line"/>
      <point x="518" y="244" type="line"/>
      <point x="506" y="153" type="line"/>
      <point x="482" y="145"/>
      <point x="458" y="142"/>
      <point x="424" y="142" type="curve" smooth="yes"/>
      <point x="332" y="142"/>
      <point x="270" y="208"/>
      <point x="270" y="298" type="curve" smooth="yes"/>
      <point x="270" y="422"/>
      <point x="354" y="514"/>
      <point x="490" y="514" type="curve" smooth="yes"/>
      <point x="558" y="514"/>
      <point x="636" y="496"/>
      <point x="696" y="467" type="curve"/>
      <point x="720" y="632" type="line"/>
      <point x="658" y="656"/>
      <point x="572" y="672"/>
      <point x="494" y="672" type="curve" smooth="yes"/>
      <point x="253" y="672"/>
      <point x="86" y="516"/>
      <point x="86" y="284" type="curve" smooth="yes"/>
      <point x="86" y="102"/>
      <point x="213" y="-14"/>
    </contour>
  </outline>
</glyph>
<glyph name="H" format="2">
  <advance width="712"/>
  <unicode hex="0048"/>
  <guideline x="356" y="0" angle="82.0" name="" identifier="JMBvttS7Pj"/>
  <anchor x="446" y="640" name="top"/>
  <outline>
    <contour>
      <point x="62" y="0" type="line"/>
      <point x="238" y="0" type="line"/>
      <point x="274" y="251" type="line"/>
      <point x="509" y="251" type="line"/>
      <point x="474" y="0" type="line"/>
      <point x="650" y="0" type="line"/>
      <point x="742" y="658" type="line"/>
      <point x="566" y="658" type="line"/>
      <point x="531" y="410" type="line"/>
      <point x="296" y="410" type="line"/>
      <point x="330" y="658" type="line"/>
      <point x="154" y="658" type="line"/>
    </contour>
  </outline>
</glyph>
<glyph name="I" format="2">
  <advance width="300"/>
  <unicode hex="0049"/>
  <anchor x="242" y="642" name="top"/>
  <anchor x="234" y="16" name="ogonek"/>
  <outline>
    <contour>
      <point x="62" y="0" type="line"/>
      <point x="238" y="0" type="line"/>
      <point x="330" y="658" type="line"/>
      <point x="154" y="658" type="line"/>
    </contour>
  </outline>
</glyph>
<glyph name="J" format="2">
  <advance width="304"/>
  <unicode hex="004A"/>
  <anchor x="246" y="642" name="top"/>
  <outline>
    <contour>
      <point x="-42" y="-220" type="line" smooth="yes"/>
      <point x="114" y="-220"/>
      <point x="220" y="-148"/>
      <point x="244" y="17" type="curve" smooth="yes"/>
      <point x="334" y="658" type="line"/>
      <point x="157" y="658" type="line"/>
      <point x="67" y="17" type="line" smooth="yes"/>
      <point x="58" y="-50"/>
      <point x="23" y="-68"/>
      <point x="-30" y="-68" type="curve" smooth="yes"/>
      <point x="-38" y="-68" type="line"/>
      <point x="-58" y="-220" type="line"/>
    </contour>
  </outline>
</glyph>
<glyph name="K" format="2">
  <advance width="692"/>
  <unicode hex="004B"/>
  <anchor x="353" y="16" name="bottom"/>
  <outline>
    <contour>
      <point x="62" y="0" type="line"/>
      <point x="238" y="0" type="line"/>
      <point x="286" y="331" type="line"/>
      <point x="266" y="331" type="line"/>
      <point x="464" y="0" type="line"/>
      <point x="672" y="0" type="line"/>
      <point x="438" y="374" type="line"/>
      <point x="439" y="304" type="line"/>
      <point x="762" y="658" type="line"/>
      <point x="554" y="658" type="line"/>
      <point x="264" y="337" type="line"/>
      <point x="286" y="337" type="line"/>
      <point x="332" y="658" type="line"/>
      <point x="155" y="658" type="line"/>
    </contour>
  </outline>
</glyph>
<glyph name="L" format="2">
  <advance width="502"/>
  <unicode hex="004C"/>
  <anchor x="241" y="642" name="top"/>
  <anchor x="284" y="16" name="bottom"/>
  <anchor x="486" y="526" name="caron.vert"/>
  <outline>
    <contour>
      <point x="62" y="0" type="line"/>
      <point x="478" y="0" type="line"/>
      <point x="501" y="160" type="line"/>
      <point x="261" y="160" type="line"/>
      <point x="330" y="658" type="line"/>
      <point x="154" y="658" type="line"/>
    </contour>
  </outline>
</glyph>
<glyph name="M" format="2">
  <advance width="879"/>
  <unicode hex="004D"/>
  <outline>
    <contour>
      <point x="62" y="0" type="line"/>
      <point x="223" y="0" type="line"/>
      <point x="271" y="341" type="line"/>
      <point x="296" y="598" type="line"/>
      <point x="254" y="598" type="line"/>
      <point x="315" y="342" type="line"/>
      <point x="380" y="88" type="line"/>
      <point x="509" y="88" type="line"/>
      <point x="644" y="341" type="line" smooth="yes"/>
      <point x="777" y="598" type="line"/>
      <point x="736" y="598" type="line"/>
      <point x="690" y="340" type="line"/>
      <point x="642" y="0" type="line"/>
      <point x="817" y="0" type="line"/>
      <point x="909" y="658" type="line"/>
      <point x="651" y="658" type="line"/>
      <point x="538" y="443" type="line"/>
      <point x="442" y="246" type="line"/>
      <point x="498" y="246" type="line"/>
      <point x="456" y="443" type="line"/>
      <point x="402" y="658" type="line"/>
      <point x="154" y="658" type="line"/>
    </contour>
  </outline>
</glyph>
<glyph name="N" format="2">
  <advance width="746"/>
  <unicode hex="004E"/>
  <anchor x="464" y="642" name="top"/>
  <anchor x="385" y="8" name="bottom"/>
  <outline>
    <contour>
      <point x="62" y="0" type="line"/>
      <point x="223" y="0" type="line"/>
      <point x="269" y="328" type="line"/>
      <point x="292" y="551" type="line"/>
      <point x="217" y="551" type="line"/>
      <point x="320" y="328" type="line"/>
      <point x="494" y="0" type="line"/>
      <point x="684" y="0" type="line"/>
      <point x="776" y="658" type="line"/>
      <point x="614" y="658" type="line"/>
      <point x="569" y="333" type="line"/>
      <point x="546" y="107" type="line"/>
      <point x="622" y="107" type="line"/>
      <point x="518" y="333" type="line"/>
      <point x="348" y="658" type="line"/>
      <point x="154" y="658" type="line"/>
    </contour>
  </outline>
</glyph>
<glyph name="O" format="2">
  <advance width="788"/>
  <unicode hex="004F"/>
  <anchor x="470" y="651" name="top"/>
  <outline>
    <contour>
      <point x="412" y="-16" type="curve" smooth="yes"/>
      <point x="632" y="-16"/>
      <point x="794" y="146"/>
      <point x="794" y="367" type="curve" smooth="yes"/>
      <point x="794" y="557"/>
      <point x="662" y="674"/>
      <point x="466" y="674" type="curve" smooth="yes"/>
      <point x="246" y="674"/>
      <point x="87" y="511"/>
      <point x="87" y="290" type="curve" smooth="yes"/>
      <point x="87" y="101"/>
      <point x="218" y="-16"/>
    </contour>
    <contour>
      <point x="422" y="142" type="curve" smooth="yes"/>
      <point x="328" y="142"/>
      <point x="270" y="208"/>
      <point x="270" y="304" type="curve" smooth="yes"/>
      <point x="270" y="428"/>
      <point x="348" y="516"/>
      <point x="458" y="516" type="curve" smooth="yes"/>
      <point x="552" y="516"/>
      <point x="610" y="451"/>
      <point x="610" y="355" type="curve" smooth="yes"/>
      <point x="610" y="231"/>
      <point x="532" y="142"/>
    </contour>
  </outline>
</glyph>
<glyph name="P" format="2">
  <advance width="573"/>
  <unicode hex="0050"/>
  <outline>
    <contour>
      <point x="62" y="0" type="line"/>
      <point x="238" y="0" type="line"/>
      <point x="265" y="190" type="line"/>
      <point x="312" y="190" type="line" smooth="yes"/>
      <point x="486" y="190"/>
      <point x="604" y="302"/>
      <point x="604" y="449" type="curve" smooth="yes"/>
      <point x="604" y="572"/>
      <point x="512" y="658"/>
      <point x="376" y="658" type="curve" smooth="yes"/>
      <point x="154" y="658" type="line"/>
    </contour>
    <contour>
      <point x="286" y="338" type="line"/>
      <point x="310" y="507" type="line"/>
      <point x="344" y="507" type="line" smooth="yes"/>
      <point x="394" y="507"/>
      <point x="426" y="479"/>
      <point x="426" y="434" type="curve" smooth="yes"/>
      <point x="426" y="375"/>
      <point x="382" y="338"/>
      <point x="319" y="338" type="curve" smooth="yes"/>
    </contour>
  </outline>
</glyph>
<glyph name="Q" format="2">
  <advance width="788"/>
  <unicode hex="0051"/>
  <guideline x="802" y="398" angle="82.0" identifier="kRPqQ8vboa"/>
  <outline>
    <contour>
      <point x="650" y="-164" type="curve"/>
      <point x="739" y="-23" type="line"/>
      <point x="653" y="1"/>
      <point x="572" y="66"/>
      <point x="516" y="138" type="curve"/>
      <point x="380" y="27" type="line"/>
      <point x="444" y="-58"/>
      <point x="550" y="-134"/>
    </contour>
    <component base="O"/>
  </outline>
</glyph>
<glyph name="R" format="2">
  <advance width="624"/>
  <unicode hex="0052"/>
  <anchor x="360" y="642" name="top"/>
  <anchor x="336" y="16" name="bottom"/>
  <outline>
    <contour>
      <point x="62" y="0" type="line"/>
      <point x="238" y="0" type="line"/>
      <point x="274" y="254" type="line"/>
      <point x="316" y="254" type="line" smooth="yes"/>
      <point x="356" y="254"/>
      <point x="380" y="234"/>
      <point x="390" y="186" type="curve" smooth="yes"/>
      <point x="428" y="0" type="line"/>
      <point x="608" y="0" type="line"/>
      <point x="564" y="205" type="line" smooth="yes"/>
      <point x="548" y="276"/>
      <point x="493" y="316"/>
      <point x="402" y="323" type="curve"/>
      <point x="400" y="303" type="line"/>
      <point x="530" y="314"/>
      <point x="611" y="387"/>
      <point x="611" y="492" type="curve" smooth="yes"/>
      <point x="611" y="596"/>
      <point x="538" y="658"/>
      <point x="412" y="658" type="curve" smooth="yes"/>
      <point x="154" y="658" type="line"/>
    </contour>
    <contour>
      <point x="292" y="379" type="line"/>
      <point x="312" y="521" type="line"/>
      <point x="365" y="521" type="line" smooth="yes"/>
      <point x="403" y="521"/>
      <point x="426" y="497"/>
      <point x="426" y="459" type="curve" smooth="yes"/>
      <point x="426" y="412"/>
      <point x="394" y="379"/>
      <point x="346" y="379" type="curve" smooth="yes"/>
    </contour>
  </outline>
</glyph>
<glyph name="S" format="2">
  <advance width="548"/>
  <unicode hex="0053"/>
  <anchor x="360" y="650" name="top"/>
  <anchor x="274" y="8" name="bottom"/>
  <outline>
    <contour>
      <point x="254" y="-14" type="curve" smooth="yes"/>
      <point x="434" y="-14"/>
      <point x="535" y="89"/>
      <point x="535" y="220" type="curve" smooth="yes"/>
      <point x="535" y="310"/>
      <point x="480" y="370"/>
      <point x="386" y="404" type="curve" smooth="yes"/>
      <point x="367" y="410" type="line" smooth="yes"/>
      <point x="320" y="428"/>
      <point x="300" y="444"/>
      <point x="300" y="468" type="curve" smooth="yes"/>
      <point x="300" y="500"/>
      <point x="324" y="519"/>
      <point x="370" y="519" type="curve" smooth="yes"/>
      <point x="426" y="519"/>
      <point x="485" y="502"/>
      <point x="537" y="472" type="curve"/>
      <point x="560" y="636" type="line"/>
      <point x="505" y="659"/>
      <point x="438" y="671"/>
      <point x="374" y="671" type="curve" smooth="yes"/>
      <point x="206" y="671"/>
      <point x="106" y="574"/>
      <point x="106" y="444" type="curve" smooth="yes"/>
      <point x="106" y="360"/>
      <point x="161" y="296"/>
      <point x="260" y="261" type="curve" smooth="yes"/>
      <point x="280" y="254" type="line" smooth="yes"/>
      <point x="325" y="238"/>
      <point x="344" y="220"/>
      <point x="344" y="194" type="curve" smooth="yes"/>
      <point x="344" y="160"/>
      <point x="316" y="140"/>
      <point x="264" y="140" type="curve" smooth="yes"/>
      <point x="204" y="140"/>
      <point x="138" y="158"/>
      <point x="86" y="190" type="curve"/>
      <point x="63" y="27" type="line"/>
      <point x="122" y="0"/>
      <point x="190" y="-14"/>
    </contour>
  </outline>
</glyph>
<glyph name="T" format="2">
  <advance width="574"/>
  <unicode hex="0054"/>
  <anchor x="373" y="642" name="top"/>
  <anchor x="292" y="16" name="bottom"/>
  <outline>
    <contour>
      <point x="199" y="0" type="line"/>
      <point x="375" y="0" type="line"/>
      <point x="445" y="498" type="line"/>
      <point x="624" y="498" type="line"/>
      <point x="646" y="658" type="line"/>
      <point x="112" y="658" type="line"/>
      <point x="90" y="498" type="line"/>
      <point x="269" y="498" type="line"/>
    </contour>
  </outline>
</glyph>
<glyph name="U" format="2">
  <advance width="692"/>
  <unicode hex="0055"/>
  <guideline x="379" y="270" angle="82.0" name="" identifier="oYZKR9ebBy"/>
  <anchor x="444" y="642" name="top"/>
  <outline>
    <contour>
      <point x="366" y="-12" type="curve" smooth="yes"/>
      <point x="528" y="-12"/>
      <point x="650" y="91"/>
      <point x="673" y="260" type="curve" smooth="yes"/>
      <point x="728" y="658" type="line"/>
      <point x="562" y="658" type="line"/>
      <point x="506" y="268" type="line" smooth="yes"/>
      <point x="497" y="200"/>
      <point x="447" y="152"/>
      <point x="378" y="152" type="curve" smooth="yes"/>
      <point x="304" y="152"/>
      <point x="264" y="200"/>
      <point x="274" y="268" type="curve" smooth="yes"/>
      <point x="329" y="658" type="line"/>
      <point x="148" y="658" type="line"/>
      <point x="93" y="265" type="line" smooth="yes"/>
      <point x="70" y="105"/>
      <point x="178" y="-12"/>
    </contour>
  </outline>
</glyph>
<glyph name="V" format="2">
  <advance width="710"/>
  <unicode hex="0056"/>
  <outline>
    <contour>
      <point x="273" y="0" type="line"/>
      <point x="438" y="0" type="line"/>
      <point x="788" y="658" type="line"/>
      <point x="612" y="658" type="line"/>
      <point x="442" y="326" type="line"/>
      <point x="337" y="98" type="line"/>
      <point x="412" y="98" type="line"/>
      <point x="372" y="326" type="line"/>
      <point x="295" y="658" type="line"/>
      <point x="106" y="658" type="line"/>
    </contour>
  </outline>
</glyph>
<glyph name="W" format="2">
  <advance width="1041"/>
  <unicode hex="0057"/>
  <anchor x="614" y="642" name="top"/>
  <outline>
    <contour>
      <point x="211" y="0" type="line"/>
      <point x="404" y="0" type="line"/>
      <point x="532" y="304" type="line"/>
      <point x="662" y="641" type="line"/>
      <point x="562" y="641" type="line"/>
      <point x="592" y="304" type="line"/>
      <point x="632" y="0" type="line"/>
      <point x="827" y="0" type="line"/>
      <point x="1119" y="658" type="line"/>
      <point x="944" y="658" type="line"/>
      <point x="806" y="326" type="line"/>
      <point x="694" y="20" type="line"/>
      <point x="784" y="20" type="line"/>
      <point x="754" y="326" type="line"/>
      <point x="710" y="658" type="line"/>
      <point x="526" y="658" type="line"/>
      <point x="386" y="326" type="line"/>
      <point x="274" y="20" type="line"/>
      <point x="360" y="20" type="line"/>
      <point x="335" y="326" type="line"/>
      <point x="290" y="658" type="line"/>
      <point x="106" y="658" type="line"/>
    </contour>
  </outline>
</glyph>
<glyph name="X" format="2">
  <advance width="702"/>
  <unicode hex="0058"/>
  <outline>
    <contour>
      <point x="17" y="0" type="line"/>
      <point x="216" y="0" type="line"/>
      <point x="332" y="145" type="line"/>
      <point x="408" y="244" type="line"/>
      <point x="475" y="302" type="line"/>
      <point x="771" y="658" type="line"/>
      <point x="572" y="658" type="line"/>
      <point x="464" y="526" type="line"/>
      <point x="396" y="435" type="line"/>
      <point x="335" y="383" type="line"/>
    </contour>
    <contour>
      <point x="478" y="0" type="line"/>
      <point x="686" y="0" type="line"/>
      <point x="476" y="384" type="line"/>
      <point x="436" y="436" type="line"/>
      <point x="394" y="526" type="line"/>
      <point x="326" y="658" type="line"/>
      <point x="116" y="658" type="line"/>
      <point x="314" y="302" type="line"/>
      <point x="359" y="238" type="line"/>
      <point x="403" y="146" type="line"/>
    </contour>
  </outline>
</glyph>
<glyph name="Y" format="2">
  <advance width="687"/>
  <unicode hex="0059"/>
  <anchor x="430" y="642" name="top"/>
  <outline>
    <contour>
      <point x="256" y="0" type="line"/>
      <point x="432" y="0" type="line"/>
      <point x="472" y="279" type="line"/>
      <point x="440" y="213" type="line"/>
      <point x="768" y="658" type="line"/>
      <point x="568" y="658" type="line"/>
      <point x="448" y="490" type="line"/>
      <point x="324" y="294" type="line"/>
      <point x="447" y="294" type="line"/>
      <point x="374" y="490" type="line"/>
      <point x="300" y="658" type="line"/>
      <point x="103" y="658" type="line"/>
      <point x="311" y="210" type="line"/>
      <point x="296" y="282" type="line"/>
    </contour>
  </outline>
</glyph>
<glyph name="Z" format="2">
  <advance width="631"/>
  <unicode hex="005A"/>
  <anchor x="407" y="642" name="top"/>
  <outline>
    <contour>
      <point x="46" y="0" type="line"/>
      <point x="584" y="0" type="line"/>
      <point x="607" y="160" type="line"/>
      <point x="252" y="160" type="line"/>
      <point x="241" y="62" type="line"/>
      <point x="385" y="223" type="line"/>
      <point x="664" y="559" type="line"/>
      <point x="677" y="658" type="line"/>
      <point x="146" y="658" type="line"/>
      <point x="123" y="498" type="line"/>
      <point x="473" y="498" type="line"/>
      <point x="484" y="596" type="line"/>
      <point x="340" y="434" type="line"/>
      <point x="60" y="99" type="line"/>
    </contour>
  </outline>
</glyph>
<glyph name="bracketleft" format="2">
  <advance width="376"/>
  <unicode hex="005B"/>
  <outline>
    <contour>
      <point x="39" y="-220" type="line"/>
      <point x="310" y="-220" type="line"/>
      <point x="328" y="-87" type="line"/>
      <point x="218" y="-87" type="line"/>
      <point x="312" y="583" type="line"/>
      <point x="422" y="583" type="line"/>
      <point x="440" y="716" type="line"/>
      <point x="171" y="716" type="line"/>
    </contour>
  </outline>
</glyph>
<glyph name="bracketright" format="2">
  <advance width="376"/>
  <unicode hex="005D"/>
  <outline>
    <contour>
      <point x="7" y="-215" type="line"/>
      <point x="276" y="-215" type="line"/>
      <point x="406" y="716" type="line"/>
      <point x="137" y="716" type="line"/>
      <point x="118" y="583" type="line"/>
      <point x="229" y="583" type="line"/>
      <point x="136" y="-82" type="line"/>
      <point x="26" y="-82" type="line"/>
    </contour>
  </outline>
</glyph>
<glyph name="a" format="2">
  <advance width="556"/>
  <unicode hex="0061"/>
  <anchor x="352" y="462" name="top"/>
  <anchor x="512" y="16" name="ogonek"/>
  <outline>
    <contour>
      <point x="217" y="-11" type="curve" smooth="yes"/>
      <point x="274" y="-11"/>
      <point x="322" y="16"/>
      <point x="357" y="78" type="curve"/>
      <point x="357" y="58" type="line" smooth="yes"/>
      <point x="357" y="40"/>
      <point x="357" y="20"/>
      <point x="357" y="0" type="curve"/>
      <point x="514" y="0" type="line"/>
      <point x="514" y="56"/>
      <point x="518" y="116"/>
      <point x="526" y="169" type="curve" smooth="yes"/>
      <point x="566" y="452" type="line"/>
      <point x="502" y="470"/>
      <point x="426" y="483"/>
      <point x="364" y="483" type="curve" smooth="yes"/>
      <point x="184" y="483"/>
      <point x="56" y="354"/>
      <point x="56" y="182" type="curve" smooth="yes"/>
      <point x="56" y="56"/>
      <point x="124" y="-11"/>
    </contour>
    <contour>
      <point x="282" y="136" type="curve" smooth="yes"/>
      <point x="244" y="136"/>
      <point x="226" y="163"/>
      <point x="226" y="210" type="curve" smooth="yes"/>
      <point x="226" y="284"/>
      <point x="277" y="346"/>
      <point x="332" y="346" type="curve" smooth="yes"/>
      <point x="348" y="346"/>
      <point x="364" y="344"/>
      <point x="380" y="338" type="curve"/>
      <point x="371" y="276" type="line" smooth="yes"/>
      <point x="356" y="177"/>
      <point x="322" y="136"/>
    </contour>
  </outline>
</glyph>
<glyph name="b" format="2">
  <advance width="544"/>
  <unicode hex="0062"/>
  <outline>
    <contour>
      <point x="260" y="-11" type="curve" smooth="yes"/>
      <point x="430" y="-11"/>
      <point x="554" y="122"/>
      <point x="554" y="290" type="curve" smooth="yes"/>
      <point x="554" y="414"/>
      <point x="490" y="485"/>
      <point x="400" y="485" type="curve" smooth="yes"/>
      <point x="346" y="485"/>
      <point x="302" y="464"/>
      <point x="270" y="420" type="curve"/>
      <point x="280" y="478" type="line"/>
      <point x="314" y="716" type="line"/>
      <point x="143" y="716" type="line"/>
      <point x="44" y="16" type="line"/>
      <point x="110" y="0"/>
      <point x="192" y="-11"/>
    </contour>
    <contour>
      <point x="284" y="130" type="curve" smooth="yes"/>
      <point x="267" y="130"/>
      <point x="243" y="132"/>
      <point x="230" y="136" type="curve"/>
      <point x="239" y="200" type="line" smooth="yes"/>
      <point x="254" y="304"/>
      <point x="288" y="342"/>
      <point x="331" y="342" type="curve" smooth="yes"/>
      <point x="368" y="342"/>
      <point x="387" y="311"/>
      <point x="387" y="261" type="curve" smooth="yes"/>
      <point x="387" y="182"/>
      <point x="343" y="130"/>
    </contour>
  </outline>
</glyph>
<glyph name="c" format="2">
  <advance width="459"/>
  <unicode hex="0063"/>
  <anchor x="322" y="458" name="top"/>
  <anchor x="232" y="8" name="bottom"/>
  <outline>
    <contour>
      <point x="284" y="-11" type="curve" smooth="yes"/>
      <point x="336" y="-11"/>
      <point x="382" y="1"/>
      <point x="426" y="26" type="curve"/>
      <point x="448" y="178" type="line"/>
      <point x="408" y="151"/>
      <point x="371" y="136"/>
      <point x="324" y="136" type="curve" smooth="yes"/>
      <point x="269" y="136"/>
      <point x="236" y="169"/>
      <point x="236" y="222" type="curve" smooth="yes"/>
      <point x="236" y="290"/>
      <point x="278" y="336"/>
      <point x="346" y="336" type="curve" smooth="yes"/>
      <point x="391" y="336"/>
      <point x="421" y="324"/>
      <point x="461" y="302" type="curve"/>
      <point x="482" y="454" type="line"/>
      <point x="438" y="472"/>
      <point x="393" y="482"/>
      <point x="346" y="482" type="curve" smooth="yes"/>
      <point x="172" y="482"/>
      <point x="61" y="368"/>
      <point x="61" y="206" type="curve" smooth="yes"/>
      <point x="61" y="80"/>
      <point x="150" y="-11"/>
    </contour>
  </outline>
</glyph>
<glyph name="d" format="2">
  <advance width="556"/>
  <unicode hex="0064"/>
  <anchor x="726" y="700" name="caron.vert"/>
  <outline>
    <contour>
      <point x="218" y="-11" type="curve" smooth="yes"/>
      <point x="276" y="-11"/>
      <point x="324" y="16"/>
      <point x="358" y="78" type="curve"/>
      <point x="358" y="56" type="line" smooth="yes"/>
      <point x="358" y="36"/>
      <point x="358" y="18"/>
      <point x="358" y="0" type="curve"/>
      <point x="516" y="0" type="line"/>
      <point x="516" y="56"/>
      <point x="520" y="116"/>
      <point x="526" y="169" type="curve" smooth="yes"/>
      <point x="604" y="716" type="line"/>
      <point x="430" y="716" type="line"/>
      <point x="397" y="478" type="line"/>
      <point x="379" y="482"/>
      <point x="359" y="483"/>
      <point x="342" y="483" type="curve" smooth="yes"/>
      <point x="178" y="483"/>
      <point x="57" y="354"/>
      <point x="57" y="178" type="curve" smooth="yes"/>
      <point x="57" y="54"/>
      <point x="125" y="-11"/>
    </contour>
    <contour>
      <point x="282" y="136" type="curve" smooth="yes"/>
      <point x="246" y="136"/>
      <point x="227" y="164"/>
      <point x="227" y="210" type="curve" smooth="yes"/>
      <point x="227" y="285"/>
      <point x="278" y="346"/>
      <point x="333" y="346" type="curve" smooth="yes"/>
      <point x="349" y="346"/>
      <point x="366" y="344"/>
      <point x="381" y="338" type="curve"/>
      <point x="372" y="276" type="line" smooth="yes"/>
      <point x="357" y="177"/>
      <point x="324" y="136"/>
    </contour>
  </outline>
</glyph>
<glyph name="e" format="2">
  <advance width="508"/>
  <unicode hex="0065"/>
  <anchor x="322" y="462" name="top"/>
  <outline>
    <contour>
      <point x="300" y="-13" type="curve" smooth="yes"/>
      <point x="358" y="-13"/>
      <point x="421" y="0"/>
      <point x="480" y="24" type="curve"/>
      <point x="500" y="164" type="line"/>
      <point x="450" y="133"/>
      <point x="392" y="118"/>
      <point x="338" y="118" type="curve" smooth="yes"/>
      <point x="258" y="118"/>
      <point x="226" y="152"/>
      <point x="235" y="220" type="curve" smooth="yes"/>
      <point x="242" y="274" type="line" smooth="yes"/>
      <point x="251" y="334"/>
      <point x="282" y="370"/>
      <point x="322" y="370" type="curve" smooth="yes"/>
      <point x="347" y="370"/>
      <point x="363" y="358"/>
      <point x="363" y="336" type="curve" smooth="yes"/>
      <point x="363" y="302"/>
      <point x="332" y="284"/>
      <point x="282" y="282" type="curve" smooth="yes"/>
      <point x="213" y="279" type="line"/>
      <point x="198" y="177" type="line"/>
      <point x="276" y="180" type="line" smooth="yes"/>
      <point x="468" y="188"/>
      <point x="525" y="248"/>
      <point x="525" y="340" type="curve" smooth="yes"/>
      <point x="525" y="424"/>
      <point x="446" y="487"/>
      <point x="342" y="487" type="curve" smooth="yes"/>
      <point x="172" y="487"/>
      <point x="60" y="364"/>
      <point x="60" y="207" type="curve" smooth="yes"/>
      <point x="60" y="77"/>
      <point x="145" y="-13"/>
    </contour>
  </outline>
</glyph>
<glyph name="f" format="2">
  <advance width="352"/>
  <unicode hex="0066"/>
  <outline>
    <contour>
      <point x="86" y="0" type="line"/>
      <point x="256" y="0" type="line"/>
      <point x="302" y="331" type="line"/>
      <point x="385" y="331" type="line"/>
      <point x="405" y="474" type="line"/>
      <point x="322" y="474" type="line"/>
      <point x="326" y="500" type="line" smooth="yes"/>
      <point x="334" y="550"/>
      <point x="364" y="576"/>
      <point x="414" y="576" type="curve" smooth="yes"/>
      <point x="449" y="576"/>
      <point x="483" y="566"/>
      <point x="518" y="548" type="curve"/>
      <point x="540" y="700" type="line"/>
      <point x="496" y="718"/>
      <point x="450" y="727"/>
      <point x="404" y="727" type="curve" smooth="yes"/>
      <point x="270" y="727"/>
      <point x="175" y="638"/>
      <point x="158" y="513" type="curve" smooth="yes"/>
      <point x="152" y="474" type="line"/>
      <point x="88" y="474" type="line"/>
      <point x="68" y="331" type="line"/>
      <point x="132" y="331" type="line"/>
    </contour>
  </outline>
</glyph>
<glyph name="g" format="2">
  <advance width="546"/>
  <unicode hex="0067"/>
  <anchor x="348" y="463" name="top"/>
  <outline>
    <contour>
      <point x="222" y="-220" type="curve" smooth="yes"/>
      <point x="384" y="-220"/>
      <point x="481" y="-152"/>
      <point x="504" y="8" type="curve" smooth="yes"/>
      <point x="566" y="452" type="line"/>
      <point x="502" y="470"/>
      <point x="426" y="483"/>
      <point x="365" y="483" type="curve" smooth="yes"/>
      <point x="184" y="483"/>
      <point x="56" y="351"/>
      <point x="56" y="179" type="curve" smooth="yes"/>
      <point x="56" y="52"/>
      <point x="125" y="-16"/>
      <point x="218" y="-16" type="curve" smooth="yes"/>
      <point x="266" y="-16"/>
      <point x="305" y="4"/>
      <point x="339" y="52" type="curve"/>
      <point x="332" y="6" type="line" smooth="yes"/>
      <point x="324" y="-55"/>
      <point x="278" y="-84"/>
      <point x="204" y="-84" type="curve" smooth="yes"/>
      <point x="158" y="-84"/>
      <point x="99" y="-68"/>
      <point x="56" y="-42" type="curve"/>
      <point x="35" y="-191" type="line"/>
      <point x="98" y="-210"/>
      <point x="168" y="-220"/>
    </contour>
    <contour>
      <point x="282" y="134" type="curve" smooth="yes"/>
      <point x="246" y="134"/>
      <point x="226" y="160"/>
      <point x="226" y="206" type="curve" smooth="yes"/>
      <point x="226" y="282"/>
      <point x="278" y="345"/>
      <point x="332" y="345" type="curve" smooth="yes"/>
      <point x="348" y="345"/>
      <point x="366" y="342"/>
      <point x="380" y="336" type="curve"/>
      <point x="372" y="274" type="line" smooth="yes"/>
      <point x="356" y="174"/>
      <point x="324" y="134"/>
    </contour>
  </outline>
</glyph>
<glyph name="h" format="2">
  <advance width="534"/>
  <unicode hex="0068"/>
  <anchor x="226" y="682" name="top"/>
  <outline>
    <contour>
      <point x="42" y="0" type="line"/>
      <point x="212" y="0" type="line"/>
      <point x="239" y="189" type="line" smooth="yes"/>
      <point x="256" y="307"/>
      <point x="292" y="334"/>
      <point x="326" y="334" type="curve" smooth="yes"/>
      <point x="352" y="334"/>
      <point x="370" y="314"/>
      <point x="362" y="274" type="curve" smooth="yes"/>
      <point x="335" y="133" type="line" smooth="yes"/>
      <point x="327" y="90"/>
      <point x="324" y="42"/>
      <point x="324" y="0" type="curve"/>
      <point x="495" y="0" type="line"/>
      <point x="495" y="41"/>
      <point x="498" y="90"/>
      <point x="506" y="133" type="curve" smooth="yes"/>
      <point x="538" y="322" type="line" smooth="yes"/>
      <point x="556" y="422"/>
      <point x="498" y="485"/>
      <point x="408" y="485" type="curve" smooth="yes"/>
      <point x="352" y="485"/>
      <point x="299" y="454"/>
      <point x="266" y="394" type="curve"/>
      <point x="271" y="420"/>
      <point x="276" y="452"/>
      <point x="279" y="473" type="curve" smooth="yes"/>
      <point x="314" y="716" type="line"/>
      <point x="143" y="716" type="line"/>
    </contour>
  </outline>
</glyph>
<glyph name="i" format="2">
  <advance width="264"/>
  <unicode hex="0069"/>
  <anchor x="175" y="458" name="top"/>
  <anchor x="224" y="16" name="ogonek"/>
  <outline>
    <contour>
      <point x="52" y="0" type="curve"/>
      <point x="222" y="0" type="line"/>
      <point x="222" y="42"/>
      <point x="226" y="88"/>
      <point x="232" y="132" type="curve" smooth="yes"/>
      <point x="280" y="474" type="line"/>
      <point x="110" y="474" type="line"/>
      <point x="62" y="132" type="line" smooth="yes"/>
      <point x="56" y="88"/>
      <point x="52" y="40"/>
    </contour>
    <contour>
      <point x="122" y="563" type="line"/>
      <point x="292" y="563" type="line"/>
      <point x="314" y="716" type="line"/>
      <point x="143" y="716" type="line"/>
    </contour>
  </outline>
</glyph>
<glyph name="j" format="2">
  <advance width="262"/>
  <unicode hex="006A"/>
  <anchor x="176" y="458" name="top"/>
  <outline>
    <contour>
      <point x="-62" y="-220" type="line" smooth="yes"/>
      <point x="112" y="-220"/>
      <point x="202" y="-126"/>
      <point x="222" y="7" type="curve" smooth="yes"/>
      <point x="287" y="474" type="line"/>
      <point x="117" y="474" type="line"/>
      <point x="52" y="16" type="line" smooth="yes"/>
      <point x="44" y="-42"/>
      <point x="15" y="-76"/>
      <point x="-44" y="-76" type="curve" smooth="yes"/>
      <point x="-55" y="-76" type="line"/>
      <point x="-75" y="-220" type="line"/>
    </contour>
    <contour>
      <point x="129" y="563" type="line"/>
      <point x="300" y="563" type="line"/>
      <point x="321" y="716" type="line"/>
      <point x="150" y="716" type="line"/>
    </contour>
  </outline>
</glyph>
<glyph name="k" format="2">
  <advance width="544"/>
  <unicode hex="006B"/>
  <anchor x="279" y="16" name="bottom"/>
  <outline>
    <contour>
      <point x="42" y="0" type="line"/>
      <point x="212" y="0" type="line"/>
      <point x="247" y="248" type="line"/>
      <point x="224" y="248" type="line"/>
      <point x="344" y="0" type="line"/>
      <point x="536" y="0" type="line"/>
      <point x="402" y="264" type="line"/>
      <point x="401" y="234" type="line"/>
      <point x="470" y="294"/>
      <point x="542" y="382"/>
      <point x="594" y="474" type="curve"/>
      <point x="412" y="474" type="line"/>
      <point x="366" y="396"/>
      <point x="302" y="322"/>
      <point x="224" y="254" type="curve"/>
      <point x="248" y="254" type="line"/>
      <point x="314" y="716" type="line"/>
      <point x="143" y="716" type="line"/>
    </contour>
  </outline>
</glyph>
<glyph name="l" format="2">
  <advance width="268"/>
  <unicode hex="006C"/>
  <anchor x="222" y="692" name="top"/>
  <anchor x="443" y="716" name="caron.vert"/>
  <anchor x="140" y="16" name="bottom"/>
  <outline>
    <contour>
      <point x="56" y="0" type="curve"/>
      <point x="227" y="0" type="line"/>
      <point x="224" y="43"/>
      <point x="226" y="93"/>
      <point x="232" y="133" type="curve" smooth="yes"/>
      <point x="314" y="716" type="line"/>
      <point x="143" y="716" type="line"/>
      <point x="61" y="133" type="line" smooth="yes"/>
      <point x="56" y="93"/>
      <point x="54" y="43"/>
    </contour>
  </outline>
</glyph>
<glyph name="m" format="2">
  <advance width="820"/>
  <unicode hex="006D"/>
  <outline>
    <contour>
      <point x="50" y="0" type="line"/>
      <point x="220" y="0" type="line"/>
      <point x="247" y="189" type="line" smooth="yes"/>
      <point x="262" y="290"/>
      <point x="292" y="334"/>
      <point x="332" y="334" type="curve" smooth="yes"/>
      <point x="358" y="334"/>
      <point x="374" y="314"/>
      <point x="368" y="274" type="curve" smooth="yes"/>
      <point x="330" y="0" type="line"/>
      <point x="500" y="0" type="line"/>
      <point x="526" y="189" type="line" smooth="yes"/>
      <point x="541" y="290"/>
      <point x="573" y="334"/>
      <point x="612" y="334" type="curve" smooth="yes"/>
      <point x="641" y="334"/>
      <point x="657" y="312"/>
      <point x="650" y="274" type="curve" smooth="yes"/>
      <point x="622" y="134" type="line" smooth="yes"/>
      <point x="614" y="88"/>
      <point x="610" y="40"/>
      <point x="610" y="0" type="curve"/>
      <point x="780" y="0" type="line"/>
      <point x="780" y="42"/>
      <point x="784" y="87"/>
      <point x="792" y="133" type="curve" smooth="yes"/>
      <point x="826" y="322" type="line" smooth="yes"/>
      <point x="844" y="421"/>
      <point x="786" y="485"/>
      <point x="694" y="485" type="curve" smooth="yes"/>
      <point x="644" y="485"/>
      <point x="579" y="465"/>
      <point x="536" y="370" type="curve"/>
      <point x="550" y="366" type="line"/>
      <point x="540" y="452"/>
      <point x="478" y="485"/>
      <point x="414" y="485" type="curve" smooth="yes"/>
      <point x="358" y="485"/>
      <point x="308" y="456"/>
      <point x="276" y="395" type="curve"/>
      <point x="277" y="416" type="line" smooth="yes"/>
      <point x="278" y="434"/>
      <point x="278" y="456"/>
      <point x="278" y="474" type="curve"/>
      <point x="108" y="474" type="line"/>
      <point x="108" y="431"/>
      <point x="105" y="388"/>
      <point x="98" y="344" type="curve" smooth="yes"/>
    </contour>
  </outline>
</glyph>
<glyph name="n" format="2">
  <advance width="544"/>
  <unicode hex="006E"/>
  <anchor x="322" y="458" name="top"/>
  <anchor x="281" y="16" name="bottom"/>
  <outline>
    <contour>
      <point x="52" y="0" type="line"/>
      <point x="222" y="0" type="line"/>
      <point x="248" y="189" type="line" smooth="yes"/>
      <point x="263" y="290"/>
      <point x="296" y="334"/>
      <point x="336" y="334" type="curve" smooth="yes"/>
      <point x="361" y="334"/>
      <point x="380" y="314"/>
      <point x="372" y="274" type="curve" smooth="yes"/>
      <point x="344" y="133" type="line" smooth="yes"/>
      <point x="336" y="90"/>
      <point x="334" y="42"/>
      <point x="334" y="0" type="curve"/>
      <point x="504" y="0" type="line"/>
      <point x="504" y="41"/>
      <point x="508" y="90"/>
      <point x="515" y="133" type="curve" smooth="yes"/>
      <point x="548" y="322" type="line" smooth="yes"/>
      <point x="566" y="422"/>
      <point x="508" y="485"/>
      <point x="418" y="485" type="curve" smooth="yes"/>
      <point x="362" y="485"/>
      <point x="310" y="456"/>
      <point x="278" y="395" type="curve"/>
      <point x="278" y="414" type="line" smooth="yes"/>
      <point x="278" y="433"/>
      <point x="278" y="455"/>
      <point x="278" y="474" type="curve"/>
      <point x="108" y="474" type="line"/>
      <point x="108" y="434"/>
      <point x="106" y="387"/>
      <point x="100" y="344" type="curve" smooth="yes"/>
    </contour>
  </outline>
</glyph>
<glyph name="o" format="2">
  <advance width="548"/>
  <unicode hex="006F"/>
  <guideline x="280" y="0" angle="163.99999997613642" name="" identifier="4bXGDtxiNW"/>
  <anchor x="338" y="462" name="top"/>
  <outline>
    <contour>
      <point x="284" y="-14" type="curve" smooth="yes"/>
      <point x="439" y="-14"/>
      <point x="555" y="108"/>
      <point x="555" y="272" type="curve" smooth="yes"/>
      <point x="555" y="406"/>
      <point x="470" y="488"/>
      <point x="332" y="488" type="curve" smooth="yes"/>
      <point x="176" y="488"/>
      <point x="60" y="366"/>
      <point x="60" y="202" type="curve" smooth="yes"/>
      <point x="60" y="68"/>
      <point x="144" y="-14"/>
    </contour>
    <contour>
      <point x="298" y="134" type="curve" smooth="yes"/>
      <point x="257" y="134"/>
      <point x="228" y="166"/>
      <point x="228" y="213" type="curve" smooth="yes"/>
      <point x="228" y="288"/>
      <point x="268" y="340"/>
      <point x="318" y="340" type="curve" smooth="yes"/>
      <point x="358" y="340"/>
      <point x="386" y="308"/>
      <point x="386" y="261" type="curve" smooth="yes"/>
      <point x="386" y="186"/>
      <point x="347" y="134"/>
    </contour>
  </outline>
</glyph>
<glyph name="p" format="2">
  <advance width="554"/>
  <unicode hex="0070"/>
  <outline>
    <contour>
      <point x="23" y="-207" type="line"/>
      <point x="194" y="-207" type="line"/>
      <point x="222" y="-2" type="line"/>
      <point x="243" y="-8"/>
      <point x="268" y="-11"/>
      <point x="289" y="-11" type="curve" smooth="yes"/>
      <point x="448" y="-11"/>
      <point x="564" y="124"/>
      <point x="564" y="290" type="curve" smooth="yes"/>
      <point x="564" y="418"/>
      <point x="500" y="485"/>
      <point x="408" y="485" type="curve" smooth="yes"/>
      <point x="347" y="485"/>
      <point x="295" y="456"/>
      <point x="262" y="391" type="curve"/>
      <point x="262" y="414" type="line" smooth="yes"/>
      <point x="262" y="432"/>
      <point x="262" y="453"/>
      <point x="262" y="474" type="curve"/>
      <point x="108" y="474" type="line"/>
      <point x="108" y="430"/>
      <point x="107" y="390"/>
      <point x="100" y="344" type="curve" smooth="yes"/>
    </contour>
    <contour>
      <point x="300" y="123" type="curve" smooth="yes"/>
      <point x="279" y="123"/>
      <point x="257" y="126"/>
      <point x="242" y="130" type="curve"/>
      <point x="251" y="197" type="line" smooth="yes"/>
      <point x="267" y="318"/>
      <point x="310" y="338"/>
      <point x="343" y="338" type="curve" smooth="yes"/>
      <point x="380" y="338"/>
      <point x="399" y="308"/>
      <point x="399" y="257" type="curve" smooth="yes"/>
      <point x="399" y="179"/>
      <point x="358" y="123"/>
    </contour>
  </outline>
</glyph>
<glyph name="q" format="2">
  <advance width="546"/>
  <unicode hex="0071"/>
  <outline>
    <contour>
      <point x="303" y="-207" type="line"/>
      <point x="474" y="-207" type="line"/>
      <point x="566" y="452" type="line"/>
      <point x="502" y="470"/>
      <point x="426" y="483"/>
      <point x="366" y="483" type="curve" smooth="yes"/>
      <point x="184" y="483"/>
      <point x="57" y="352"/>
      <point x="57" y="182" type="curve" smooth="yes"/>
      <point x="57" y="56"/>
      <point x="126" y="-11"/>
      <point x="218" y="-11" type="curve" smooth="yes"/>
      <point x="267" y="-11"/>
      <point x="310" y="11"/>
      <point x="340" y="56" type="curve"/>
    </contour>
    <contour>
      <point x="282" y="136" type="curve" smooth="yes"/>
      <point x="246" y="136"/>
      <point x="227" y="164"/>
      <point x="227" y="210" type="curve" smooth="yes"/>
      <point x="227" y="285"/>
      <point x="278" y="346"/>
      <point x="333" y="346" type="curve" smooth="yes"/>
      <point x="350" y="346"/>
      <point x="366" y="344"/>
      <point x="381" y="338" type="curve"/>
      <point x="372" y="276" type="line" smooth="yes"/>
      <point x="357" y="177"/>
      <point x="324" y="136"/>
    </contour>
  </outline>
</glyph>
<glyph name="r" format="2">
  <advance width="401"/>
  <unicode hex="0072"/>
  <anchor x="272" y="458" name="top"/>
  <anchor x="140" y="16" name="bottom"/>
  <outline>
    <contour>
      <point x="50" y="0" type="line"/>
      <point x="220" y="0" type="line"/>
      <point x="244" y="174" type="line" smooth="yes"/>
      <point x="262" y="295"/>
      <point x="308" y="322"/>
      <point x="352" y="322" type="curve" smooth="yes"/>
      <point x="376" y="322"/>
      <point x="403" y="316"/>
      <point x="428" y="302" type="curve"/>
      <point x="452" y="474" type="line"/>
      <point x="434" y="482"/>
      <point x="412" y="485"/>
      <point x="395" y="485" type="curve" smooth="yes"/>
      <point x="349" y="485"/>
      <point x="310" y="462"/>
      <point x="276" y="392" type="curve"/>
      <point x="276" y="415" type="line" smooth="yes"/>
      <point x="276" y="436"/>
      <point x="277" y="456"/>
      <point x="277" y="474" type="curve"/>
      <point x="108" y="474" type="line"/>
      <point x="108" y="435"/>
      <point x="105" y="393"/>
      <point x="98" y="348" type="curve" smooth="yes"/>
    </contour>
  </outline>
</glyph>
<glyph name="s" format="2">
  <advance width="436"/>
  <unicode hex="0073"/>
  <anchor x="278" y="462" name="top"/>
  <anchor x="224" y="14" name="bottom"/>
  <outline>
    <contour>
      <point x="210" y="-13" type="curve" smooth="yes"/>
      <point x="354" y="-13"/>
      <point x="429" y="58"/>
      <point x="429" y="162" type="curve" smooth="yes"/>
      <point x="429" y="233"/>
      <point x="387" y="281"/>
      <point x="312" y="302" type="curve" smooth="yes"/>
      <point x="284" y="309" type="line" smooth="yes"/>
      <point x="258" y="316"/>
      <point x="248" y="326"/>
      <point x="248" y="340" type="curve" smooth="yes"/>
      <point x="248" y="358"/>
      <point x="265" y="367"/>
      <point x="291" y="367" type="curve" smooth="yes"/>
      <point x="337" y="367"/>
      <point x="386" y="356"/>
      <point x="426" y="336" type="curve"/>
      <point x="444" y="462" type="line"/>
      <point x="393" y="478"/>
      <point x="334" y="487"/>
      <point x="283" y="487" type="curve" smooth="yes"/>
      <point x="146" y="487"/>
      <point x="74" y="418"/>
      <point x="74" y="317" type="curve" smooth="yes"/>
      <point x="74" y="243"/>
      <point x="114" y="196"/>
      <point x="186" y="176" type="curve" smooth="yes"/>
      <point x="214" y="170" type="line" smooth="yes"/>
      <point x="241" y="162"/>
      <point x="256" y="154"/>
      <point x="256" y="138" type="curve" smooth="yes"/>
      <point x="256" y="119"/>
      <point x="237" y="110"/>
      <point x="209" y="110" type="curve" smooth="yes"/>
      <point x="158" y="110"/>
      <point x="106" y="122"/>
      <point x="62" y="146" type="curve"/>
      <point x="43" y="13" type="line"/>
      <point x="96" y="-4"/>
      <point x="154" y="-13"/>
    </contour>
  </outline>
</glyph>
<glyph name="t" format="2">
  <advance width="371"/>
  <unicode hex="0074"/>
  <anchor x="228" y="8" name="bottom"/>
  <anchor x="487" y="700" name="caron.vert"/>
  <outline>
    <contour>
      <point x="231" y="-11" type="curve" smooth="yes"/>
      <point x="270" y="-11"/>
      <point x="306" y="-5"/>
      <point x="343" y="8" type="curve"/>
      <point x="364" y="154" type="line"/>
      <point x="348" y="144"/>
      <point x="332" y="140"/>
      <point x="314" y="140" type="curve" smooth="yes"/>
      <point x="288" y="140"/>
      <point x="277" y="157"/>
      <point x="281" y="187" type="curve" smooth="yes"/>
      <point x="302" y="331" type="line"/>
      <point x="388" y="331" type="line"/>
      <point x="408" y="474" type="line"/>
      <point x="321" y="474" type="line"/>
      <point x="340" y="604" type="line"/>
      <point x="170" y="604" type="line"/>
      <point x="150" y="474" type="line"/>
      <point x="86" y="474" type="line"/>
      <point x="66" y="331" type="line"/>
      <point x="131" y="331" type="line"/>
      <point x="106" y="149" type="line" smooth="yes"/>
      <point x="92" y="50"/>
      <point x="140" y="-11"/>
    </contour>
  </outline>
</glyph>
<glyph name="u" format="2">
  <advance width="545"/>
  <unicode hex="0075"/>
  <anchor x="328" y="458" name="top"/>
  <anchor x="503" y="16" name="ogonek"/>
  <outline>
    <contour>
      <point x="192" y="-11" type="curve" smooth="yes"/>
      <point x="248" y="-11"/>
      <point x="300" y="18"/>
      <point x="332" y="79" type="curve"/>
      <point x="332" y="58" type="line" smooth="yes"/>
      <point x="332" y="38"/>
      <point x="332" y="20"/>
      <point x="332" y="0" type="curve"/>
      <point x="503" y="0" type="line"/>
      <point x="503" y="42"/>
      <point x="505" y="92"/>
      <point x="510" y="133" type="curve" smooth="yes"/>
      <point x="558" y="474" type="line"/>
      <point x="388" y="474" type="line"/>
      <point x="362" y="285" type="line" smooth="yes"/>
      <point x="346" y="178"/>
      <point x="316" y="140"/>
      <point x="274" y="140" type="curve" smooth="yes"/>
      <point x="246" y="140"/>
      <point x="231" y="158"/>
      <point x="238" y="200" type="curve" smooth="yes"/>
      <point x="264" y="344" type="line" smooth="yes"/>
      <point x="272" y="389"/>
      <point x="276" y="433"/>
      <point x="276" y="474" type="curve"/>
      <point x="106" y="474" type="line"/>
      <point x="106" y="439"/>
      <point x="101" y="393"/>
      <point x="94" y="348" type="curve" smooth="yes"/>
      <point x="62" y="152" type="line" smooth="yes"/>
      <point x="46" y="52"/>
      <point x="102" y="-11"/>
    </contour>
  </outline>
</glyph>
<glyph name="v" format="2">
  <advance width="506"/>
  <unicode hex="0076"/>
  <outline>
    <contour>
      <point x="148" y="0" type="line"/>
      <point x="352" y="0" type="line"/>
      <point x="434" y="137"/>
      <point x="503" y="290"/>
      <point x="562" y="474" type="curve"/>
      <point x="402" y="474" type="line"/>
      <point x="354" y="301"/>
      <point x="292" y="154"/>
      <point x="212" y="22" type="curve"/>
      <point x="293" y="21" type="line"/>
      <point x="274" y="280" type="line"/>
      <point x="249" y="474" type="line"/>
      <point x="76" y="474" type="line"/>
    </contour>
  </outline>
</glyph>
<glyph name="w" format="2">
  <advance width="780"/>
  <unicode hex="0077"/>
  <anchor x="452" y="458" name="top"/>
  <outline>
    <contour>
      <point x="131" y="0" type="line"/>
      <point x="322" y="0" type="line"/>
      <point x="378" y="116"/>
      <point x="428" y="242"/>
      <point x="466" y="369" type="curve"/>
      <point x="418" y="369" type="line"/>
      <point x="436" y="162" type="line"/>
      <point x="458" y="0" type="line"/>
      <point x="638" y="0" type="line"/>
      <point x="720" y="146"/>
      <point x="791" y="314"/>
      <point x="836" y="474" type="curve"/>
      <point x="684" y="474" type="line"/>
      <point x="644" y="326"/>
      <point x="588" y="182"/>
      <point x="510" y="21" type="curve"/>
      <point x="590" y="21" type="line"/>
      <point x="562" y="280" type="line"/>
      <point x="534" y="474" type="line"/>
      <point x="381" y="474" type="line"/>
      <point x="332" y="320"/>
      <point x="273" y="169"/>
      <point x="204" y="21" type="curve"/>
      <point x="274" y="21" type="line"/>
      <point x="263" y="278" type="line"/>
      <point x="244" y="474" type="line"/>
      <point x="76" y="474" type="line"/>
    </contour>
  </outline>
</glyph>
<glyph name="x" format="2">
  <advance width="540"/>
  <unicode hex="0078"/>
  <outline>
    <contour>
      <point x="9" y="0" type="line"/>
      <point x="195" y="0" type="line"/>
      <point x="258" y="82" type="line"/>
      <point x="312" y="158" type="line"/>
      <point x="373" y="214" type="line"/>
      <point x="586" y="474" type="line"/>
      <point x="405" y="474" type="line"/>
      <point x="344" y="394" type="line"/>
      <point x="300" y="326" type="line"/>
      <point x="240" y="280" type="line"/>
    </contour>
    <contour>
      <point x="334" y="0" type="line"/>
      <point x="531" y="0" type="line"/>
      <point x="382" y="274" type="line"/>
      <point x="338" y="328" type="line"/>
      <point x="312" y="394" type="line"/>
      <point x="274" y="474" type="line"/>
      <point x="84" y="474" type="line"/>
      <point x="226" y="209" type="line"/>
      <point x="264" y="156" type="line"/>
      <point x="294" y="82" type="line"/>
    </contour>
  </outline>
</glyph>
<glyph name="y" format="2">
  <advance width="532"/>
  <unicode hex="0079"/>
  <anchor x="326" y="458" name="top"/>
  <outline>
    <contour>
      <point x="249" y="-12" type="line"/>
      <point x="249" y="70" type="line"/>
      <point x="199" y="-12"/>
      <point x="112" y="-62"/>
      <point x="11" y="-62" type="curve" smooth="yes"/>
      <point x="-1" y="-62" type="line"/>
      <point x="-22" y="-212" type="line"/>
      <point x="-10" y="-212" type="line" smooth="yes"/>
      <point x="150" y="-212"/>
      <point x="282" y="-142"/>
      <point x="388" y="10" type="curve" smooth="yes"/>
      <point x="466" y="122"/>
      <point x="529" y="276"/>
      <point x="576" y="474" type="curve"/>
      <point x="416" y="474" type="line"/>
      <point x="370" y="281"/>
      <point x="332" y="168"/>
      <point x="275" y="72" type="curve"/>
      <point x="310" y="72" type="line"/>
      <point x="288" y="280" type="line"/>
      <point x="256" y="474" type="line"/>
      <point x="77" y="474" type="line"/>
      <point x="169" y="-2" type="line"/>
    </contour>
  </outline>
</glyph>
<glyph name="z" format="2">
  <advance width="486"/>
  <unicode hex="007A"/>
  <anchor x="299" y="458" name="top"/>
  <outline>
    <contour>
      <point x="34" y="0" type="line"/>
      <point x="452" y="0" type="line"/>
      <point x="472" y="144" type="line"/>
      <point x="174" y="144" type="line"/>
      <point x="208" y="62" type="line"/>
      <point x="338" y="201" type="line"/>
      <point x="498" y="376" type="line"/>
      <point x="512" y="474" type="line"/>
      <point x="104" y="474" type="line"/>
      <point x="84" y="330" type="line"/>
      <point x="356" y="330" type="line"/>
      <point x="352" y="430" type="line"/>
      <point x="206" y="273" type="line"/>
      <point x="48" y="98" type="line"/>
    </contour>
  </outline>
</glyph>
<glyph name="braceleft" format="2">
  <advance width="481"/>
  <unicode hex="007B"/>
  <outline>
    <contour>
      <point x="377" y="-220" type="curve" smooth="yes"/>
      <point x="414" y="-220" type="line"/>
      <point x="432" y="-88" type="line"/>
      <point x="416" y="-88" type="line" smooth="yes"/>
      <point x="354" y="-88"/>
      <point x="325" y="-55"/>
      <point x="340" y="12" type="curve" smooth="yes"/>
      <point x="358" y="90" type="line" smooth="yes"/>
      <point x="375" y="168"/>
      <point x="334" y="224"/>
      <point x="258" y="248" type="curve"/>
      <point x="258" y="249" type="line"/>
      <point x="342" y="270"/>
      <point x="398" y="324"/>
      <point x="402" y="406" type="curve" smooth="yes"/>
      <point x="406" y="484" type="line" smooth="yes"/>
      <point x="410" y="552"/>
      <point x="446" y="584"/>
      <point x="508" y="584" type="curve" smooth="yes"/>
      <point x="524" y="584" type="line"/>
      <point x="542" y="716" type="line"/>
      <point x="505" y="716" type="line" smooth="yes"/>
      <point x="347" y="716"/>
      <point x="256" y="646"/>
      <point x="248" y="521" type="curve" smooth="yes"/>
      <point x="240" y="414" type="line" smooth="yes"/>
      <point x="236" y="358"/>
      <point x="188" y="326"/>
      <point x="102" y="313" type="curve"/>
      <point x="84" y="183" type="line"/>
      <point x="165" y="170"/>
      <point x="206" y="138"/>
      <point x="194" y="82" type="curve" smooth="yes"/>
      <point x="172" y="-25" type="line" smooth="yes"/>
      <point x="146" y="-150"/>
      <point x="220" y="-220"/>
    </contour>
  </outline>
</glyph>
<glyph name="braceright" format="2">
  <advance width="481"/>
  <unicode hex="007D"/>
  <outline>
    <contour>
      <point x="9" y="-220" type="line"/>
      <point x="46" y="-220" type="line" smooth="yes"/>
      <point x="204" y="-220"/>
      <point x="295" y="-150"/>
      <point x="304" y="-25" type="curve" smooth="yes"/>
      <point x="311" y="82" type="line" smooth="yes"/>
      <point x="315" y="138"/>
      <point x="364" y="170"/>
      <point x="448" y="183" type="curve"/>
      <point x="467" y="313" type="line"/>
      <point x="386" y="326"/>
      <point x="346" y="358"/>
      <point x="357" y="414" type="curve" smooth="yes"/>
      <point x="379" y="521" type="line" smooth="yes"/>
      <point x="405" y="646"/>
      <point x="332" y="716"/>
      <point x="174" y="716" type="curve" smooth="yes"/>
      <point x="137" y="716" type="line"/>
      <point x="118" y="584" type="line"/>
      <point x="134" y="584" type="line" smooth="yes"/>
      <point x="196" y="584"/>
      <point x="226" y="551"/>
      <point x="211" y="484" type="curve" smooth="yes"/>
      <point x="194" y="406" type="line" smooth="yes"/>
      <point x="176" y="326"/>
      <point x="216" y="271"/>
      <point x="293" y="248" type="curve"/>
      <point x="292" y="247" type="line"/>
      <point x="210" y="225"/>
      <point x="154" y="170"/>
      <point x="150" y="90" type="curve" smooth="yes"/>
      <point x="146" y="12" type="line" smooth="yes"/>
      <point x="142" y="-55"/>
      <point x="106" y="-88"/>
      <point x="44" y="-88" type="curve" smooth="yes"/>
      <point x="28" y="-88" type="line"/>
    </contour>
  </outline>
</glyph>
<glyph name="exclamdown" format="2">
  <advance width="288"/>
  <unicode hex="00A1"/>
  <outline>
    <contour>
      <point x="32" y="-219" type="line"/>
      <point x="196" y="-219" type="line"/>
      <point x="265" y="277" type="line"/>
      <point x="101" y="277" type="line"/>
    </contour>
    <contour>
      <point x="112" y="349" type="line"/>
      <point x="276" y="349" type="line"/>
      <point x="296" y="497" type="line"/>
      <point x="132" y="497" type="line"/>
    </contour>
  </outline>
</glyph>
<glyph name="questiondown" format="2">
  <advance width="485"/>
  <unicode hex="00BF"/>
  <outline>
    <contour>
      <point x="228" y="349" type="line"/>
      <point x="392" y="349" type="line"/>
      <point x="413" y="497" type="line"/>
      <point x="249" y="497" type="line"/>
    </contour>
    <contour>
      <point x="232" y="-233" type="curve" smooth="yes"/>
      <point x="296" y="-233"/>
      <point x="369" y="-220"/>
      <point x="423" y="-199" type="curve"/>
      <point x="444" y="-48" type="line"/>
      <point x="399" y="-72"/>
      <point x="348" y="-86"/>
      <point x="298" y="-86" type="curve" smooth="yes"/>
      <point x="246" y="-86"/>
      <point x="210" y="-62"/>
      <point x="210" y="-24" type="curve" smooth="yes"/>
      <point x="210" y="5"/>
      <point x="226" y="32"/>
      <point x="272" y="74" type="curve" smooth="yes"/>
      <point x="337" y="134"/>
      <point x="368" y="194"/>
      <point x="378" y="277" type="curve"/>
      <point x="224" y="277" type="line"/>
      <point x="216" y="223"/>
      <point x="192" y="180"/>
      <point x="138" y="131" type="curve" smooth="yes"/>
      <point x="62" y="63"/>
      <point x="26" y="2"/>
      <point x="26" y="-64" type="curve" smooth="yes"/>
      <point x="26" y="-170"/>
      <point x="105" y="-233"/>
    </contour>
  </outline>
</glyph>
<glyph name="acutecmb" format="2">
  <unicode hex="0301"/>
  <anchor x="64" y="458" name="_top"/>
  <anchor x="4" y="16" name="_bottom"/>
  <outline>
    <contour>
      <point x="-8" y="524" type="line"/>
      <point x="156" y="524" type="line"/>
      <point x="304" y="678" type="line"/>
      <point x="119" y="678" type="line"/>
    </contour>
  </outline>
</glyph>
<glyph name="dieresiscmb" format="2">
  <unicode hex="0308"/>
  <anchor x="64" y="458" name="_top"/>
  <anchor x="4" y="16" name="_bottom"/>
  <outline>
    <contour>
      <point x="-86" y="524" type="line"/>
      <point x="46" y="524" type="line"/>
      <point x="64" y="656" type="line"/>
      <point x="-68" y="656" type="line"/>
    </contour>
    <contour>
      <point x="104" y="524" type="line"/>
      <point x="236" y="524" type="line"/>
      <point x="254" y="656" type="line"/>
      <point x="122" y="656" type="line"/>
    </contour>
  </outline>
</glyph>
<glyph name="Delta" format="2">
  <advance width="708"/>
  <unicode hex="0394"/>
  <unicode hex="2206"/>
  <outline>
    <contour>
      <point x="16" y="0" type="line"/>
      <point x="356" y="658" type="line"/>
      <point x="544" y="658" type="line"/>
      <point x="692" y="0" type="line"/>
    </contour>
    <contour>
      <point x="254" y="143" type="line"/>
      <point x="478" y="143" type="line"/>
      <point x="411" y="450" type="line"/>
    </contour>
  </outline>
</glyph>
<glyph name="pi" format="2">
  <advance width="566"/>
  <unicode hex="03C0"/>
  <outline>
    <contour>
      <point x="90" y="0" type="line"/>
      <point x="245" y="0" type="line"/>
      <point x="292" y="332" type="line"/>
      <point x="366" y="332" type="line"/>
      <point x="344" y="173" type="line" smooth="yes"/>
      <point x="332" y="96"/>
      <point x="334" y="53"/>
      <point x="346" y="0" type="curve"/>
      <point x="503" y="0" type="line"/>
      <point x="492" y="50"/>
      <point x="488" y="104"/>
      <point x="498" y="173" type="curve" smooth="yes"/>
      <point x="520" y="332" type="line"/>
      <point x="579" y="332" type="line"/>
      <point x="599" y="474" type="line"/>
      <point x="101" y="474" type="line"/>
      <point x="81" y="332" type="line"/>
      <point x="138" y="332" type="line"/>
    </contour>
  </outline>
</glyph>
<glyph name="endash" format="2">
  <advance width="524"/>
  <unicode hex="2013"/>
  <outline>
    <contour>
      <point x="72" y="175" type="line"/>
      <point x="500" y="175" type="line"/>
      <point x="520" y="308" type="line"/>
      <point x="92" y="308" type="line"/>
    </contour>
  </outline>
</glyph>
<glyph name="emdash" format="2">
  <advance width="1018"/>
  <unicode hex="2014"/>
  <outline>
    <contour>
      <point x="72" y="174" type="line"/>
      <point x="994" y="174" type="line"/>
      <point x="1013" y="308" type="line"/>
      <point x="92" y="308" type="line"/>
    </contour>
  </outline>
</glyph>
<glyph name="quoteleft" format="2">
  <advance width="272"/>
  <unicode hex="2018"/>
  <outline>
    <contour>
      <point x="105" y="388" type="line"/>
      <point x="269" y="388" type="line"/>
      <point x="284" y="492" type="line" smooth="yes"/>
      <point x="296" y="584"/>
      <point x="322" y="636"/>
      <point x="362" y="700" type="curve"/>
      <point x="244" y="734" type="line"/>
      <point x="194" y="692"/>
      <point x="136" y="611"/>
      <point x="119" y="488" type="curve" smooth="yes"/>
    </contour>
  </outline>
</glyph>
<glyph name="quoteright" format="2">
  <advance width="272"/>
  <unicode hex="2019"/>
  <outline>
    <contour>
      <point x="184" y="371" type="line"/>
      <point x="234" y="413"/>
      <point x="291" y="494"/>
      <point x="308" y="617" type="curve" smooth="yes"/>
      <point x="323" y="716" type="line"/>
      <point x="159" y="716" type="line"/>
      <point x="144" y="612" type="line" smooth="yes"/>
      <point x="131" y="520"/>
      <point x="106" y="468"/>
      <point x="64" y="404" type="curve"/>
    </contour>
  </outline>
</glyph>
<glyph name="quotesinglbase" format="2">
  <advance width="272"/>
  <unicode hex="201A"/>
  <outline>
    <contour>
      <point x="106" y="-185" type="line"/>
      <point x="156" y="-143"/>
      <point x="213" y="-62"/>
      <point x="230" y="61" type="curve" smooth="yes"/>
      <point x="244" y="160" type="line"/>
      <point x="80" y="160" type="line"/>
      <point x="66" y="56" type="line" smooth="yes"/>
      <point x="53" y="-36"/>
      <point x="28" y="-88"/>
      <point x="-14" y="-152" type="curve"/>
    </contour>
  </outline>
</glyph>
<glyph name="quotedblleft" format="2">
  <advance width="502"/>
  <unicode hex="201C"/>
  <outline>
    <contour>
      <point x="62" y="388" type="line"/>
      <point x="226" y="388" type="line"/>
      <point x="241" y="492" type="line" smooth="yes"/>
      <point x="254" y="584"/>
      <point x="280" y="636"/>
      <point x="320" y="700" type="curve"/>
      <point x="201" y="734" type="line"/>
      <point x="151" y="692"/>
      <point x="94" y="611"/>
      <point x="76" y="488" type="curve" smooth="yes"/>
    </contour>
    <contour>
      <point x="294" y="388" type="line"/>
      <point x="458" y="388" type="line"/>
      <point x="472" y="492" type="line" smooth="yes"/>
      <point x="484" y="584"/>
      <point x="510" y="636"/>
      <point x="551" y="700" type="curve"/>
      <point x="432" y="734" type="line"/>
      <point x="382" y="692"/>
      <point x="325" y="611"/>
      <point x="308" y="488" type="curve" smooth="yes"/>
    </contour>
  </outline>
</glyph>
<glyph name="quotedblright" format="2">
  <advance width="498"/>
  <unicode hex="201D"/>
  <outline>
    <contour>
      <point x="184" y="371" type="line"/>
      <point x="234" y="413"/>
      <point x="291" y="494"/>
      <point x="308" y="617" type="curve" smooth="yes"/>
      <point x="323" y="716" type="line"/>
      <point x="159" y="716" type="line"/>
      <point x="144" y="612" type="line" smooth="yes"/>
      <point x="131" y="520"/>
      <point x="106" y="468"/>
      <point x="64" y="404" type="curve"/>
    </contour>
    <contour>
      <point x="409" y="371" type="line"/>
      <point x="459" y="413"/>
      <point x="516" y="494"/>
      <point x="534" y="617" type="curve" smooth="yes"/>
      <point x="548" y="716" type="line"/>
      <point x="384" y="716" type="line"/>
      <point x="369" y="612" type="line" smooth="yes"/>
      <point x="356" y="520"/>
      <point x="330" y="468"/>
      <point x="290" y="404" type="curve"/>
    </contour>
  </outline>
</glyph>
<glyph name="quotedblbase" format="2">
  <advance width="497"/>
  <unicode hex="201E"/>
  <outline>
    <contour>
      <point x="106" y="-185" type="line"/>
      <point x="156" y="-143"/>
      <point x="213" y="-62"/>
      <point x="230" y="61" type="curve" smooth="yes"/>
      <point x="244" y="160" type="line"/>
      <point x="80" y="160" type="line"/>
      <point x="66" y="56" type="line" smooth="yes"/>
      <point x="53" y="-36"/>
      <point x="28" y="-88"/>
      <point x="-14" y="-152" type="curve"/>
    </contour>
    <contour>
      <point x="331" y="-185" type="line"/>
      <point x="380" y="-143"/>
      <point x="438" y="-62"/>
      <point x="456" y="61" type="curve" smooth="yes"/>
      <point x="470" y="160" type="line"/>
      <point x="306" y="160" type="line"/>
      <point x="291" y="56" type="line" smooth="yes"/>
      <point x="278" y="-36"/>
      <point x="252" y="-88"/>
      <point x="212" y="-152" type="curve"/>
    </contour>
  </outline>
</glyph>
<glyph name="Euro" format="2">
  <advance width="689"/>
  <unicode hex="20AC"/>
  <outline>
    <contour>
      <point x="82" y="351" type="line"/>
      <point x="447" y="351" type="line"/>
      <point x="459" y="435" type="line"/>
      <point x="94" y="435" type="line"/>
    </contour>
    <contour>
      <point x="64" y="221" type="line"/>
      <point x="430" y="221" type="line"/>
      <point x="442" y="305" type="line"/>
      <point x="76" y="305" type="line"/>
    </contour>
    <component base="C" xOffset="36"/>
  </outline>
</glyph>
<glyph name="Omega" format="2">
  <advance width="707"/>
  <unicode hex="A7B6"/>
  <unicode hex="2126"/>
  <outline>
    <contour>
      <point x="54" y="0" type="line"/>
      <point x="324" y="0" type="line"/>
      <point x="362" y="266" type="line"/>
      <point x="308" y="276"/>
      <point x="271" y="322"/>
      <point x="271" y="382" type="curve" smooth="yes"/>
      <point x="271" y="462"/>
      <point x="328" y="516"/>
      <point x="415" y="516" type="curve" smooth="yes"/>
      <point x="496" y="516"/>
      <point x="545" y="468"/>
      <point x="545" y="402" type="curve" smooth="yes"/>
      <point x="545" y="330"/>
      <point x="494" y="274"/>
      <point x="417" y="266" type="curve"/>
      <point x="380" y="0" type="line"/>
      <point x="649" y="0" type="line"/>
      <point x="670" y="146" type="line"/>
      <point x="477" y="146" type="line"/>
      <point x="512" y="120" type="line"/>
      <point x="528" y="226" type="line"/>
      <point x="494" y="168" type="line"/>
      <point x="630" y="193"/>
      <point x="726" y="296"/>
      <point x="726" y="422" type="curve" smooth="yes"/>
      <point x="726" y="576"/>
      <point x="597" y="672"/>
      <point x="424" y="672" type="curve" smooth="yes"/>
      <point x="226" y="672"/>
      <point x="94" y="556"/>
      <point x="94" y="382" type="curve" smooth="yes"/>
      <point x="94" y="276"/>
      <point x="160" y="195"/>
      <point x="257" y="169" type="curve"/>
      <point x="236" y="201" type="line"/>
      <point x="226" y="131" type="line"/>
      <point x="254" y="146" type="line"/>
      <point x="76" y="146" type="line"/>
    </contour>
  </outline>
</glyph>
<glyph name="Euro.lc" format="2">
  <advance width="517"/>
  <outline>
    <contour>
      <point x="60" y="178" type="line"/>
      <point x="368" y="178" type="line"/>
      <point x="374" y="224" type="line"/>
      <point x="66" y="224" type="line"/>
    </contour>
    <contour>
      <point x="69" y="248" type="line"/>
      <point x="378" y="248" type="line"/>
      <point x="384" y="294" type="line"/>
      <point x="75" y="294" type="line"/>
    </contour>
    <component base="c" xOffset="48"/>
  </outline>
</glyph>
<glyph name="J.base" format="2">
  <advance width="356"/>
  <anchor x="292" y="638" name="top"/>
  <outline>
    <contour>
      <point x="40" y="-16" type="line" smooth="yes"/>
      <point x="196" y="-16"/>
      <point x="298" y="56"/>
      <point x="320" y="221" type="curve" smooth="yes"/>
      <point x="382" y="658" type="line"/>
      <point x="205" y="658" type="line"/>
      <point x="144" y="221" type="line" smooth="yes"/>
      <point x="135" y="154"/>
      <point x="106" y="136"/>
      <point x="53" y="136" type="curve" smooth="yes"/>
      <point x="45" y="136" type="line"/>
      <point x="24" y="-16" type="line"/>
    </contour>
  </outline>
</glyph>
<glyph name="S.sc" format="2">
  <advance width="477"/>
  <anchor x="310" y="516" name="top"/>
  <anchor x="239" y="4" name="bottom"/>
  <outline>
    <contour>
      <point x="231" y="-15" type="curve" smooth="yes"/>
      <point x="376" y="-15"/>
      <point x="466" y="54"/>
      <point x="466" y="172" type="curve" smooth="yes"/>
      <point x="466" y="252"/>
      <point x="414" y="297"/>
      <point x="316" y="328" type="curve" smooth="yes"/>
      <point x="302" y="334" type="line" smooth="yes"/>
      <point x="274" y="342"/>
      <point x="262" y="354"/>
      <point x="262" y="372" type="curve" smooth="yes"/>
      <point x="262" y="392"/>
      <point x="278" y="406"/>
      <point x="312" y="406" type="curve" smooth="yes"/>
      <point x="358" y="406"/>
      <point x="416" y="389"/>
      <point x="460" y="363" type="curve"/>
      <point x="480" y="505" type="line"/>
      <point x="431" y="524"/>
      <point x="368" y="535"/>
      <point x="314" y="535" type="curve" smooth="yes"/>
      <point x="173" y="535"/>
      <point x="84" y="460"/>
      <point x="84" y="348" type="curve" smooth="yes"/>
      <point x="84" y="278"/>
      <point x="131" y="225"/>
      <point x="228" y="194" type="curve" smooth="yes"/>
      <point x="243" y="188" type="line" smooth="yes"/>
      <point x="275" y="178"/>
      <point x="288" y="168"/>
      <point x="288" y="150" type="curve" smooth="yes"/>
      <point x="288" y="128"/>
      <point x="272" y="114"/>
      <point x="235" y="114" type="curve" smooth="yes"/>
      <point x="176" y="114"/>
      <point x="120" y="130"/>
      <point x="74" y="158" type="curve"/>
      <point x="54" y="17" type="line"/>
      <point x="104" y="-4"/>
      <point x="168" y="-15"/>
    </contour>
  </outline>
</glyph>
<glyph name="acutecmb.uc" format="2">
  <anchor x="90" y="642" name="_top"/>
  <anchor x="2" y="16" name="_bottom"/>
  <outline>
    <contour>
      <point x="25" y="706" type="line"/>
      <point x="174" y="706" type="line"/>
      <point x="308" y="844" type="line"/>
      <point x="140" y="844" type="line"/>
    </contour>
  </outline>
</glyph>
<glyph name="braceleft.uc" format="2">
  <advance width="465"/>
  <outline>
    <contour>
      <point x="376" y="-58" type="curve" smooth="yes"/>
      <point x="420" y="-58" type="line"/>
      <point x="439" y="74" type="line"/>
      <point x="420" y="74" type="line" smooth="yes"/>
      <point x="368" y="74"/>
      <point x="344" y="104"/>
      <point x="352" y="166" type="curve" smooth="yes"/>
      <point x="354" y="190" type="line" smooth="yes"/>
      <point x="364" y="253"/>
      <point x="338" y="307"/>
      <point x="263" y="328" type="curve"/>
      <point x="263" y="330" type="line"/>
      <point x="344" y="348"/>
      <point x="386" y="402"/>
      <point x="394" y="466" type="curve" smooth="yes"/>
      <point x="398" y="492" type="line" smooth="yes"/>
      <point x="406" y="550"/>
      <point x="436" y="584"/>
      <point x="492" y="584" type="curve" smooth="yes"/>
      <point x="511" y="584" type="line"/>
      <point x="530" y="716" type="line"/>
      <point x="485" y="716" type="line" smooth="yes"/>
      <point x="348" y="716"/>
      <point x="261" y="646"/>
      <point x="244" y="519" type="curve" smooth="yes"/>
      <point x="238" y="482" type="line" smooth="yes"/>
      <point x="232" y="432"/>
      <point x="186" y="397"/>
      <point x="112" y="387" type="curve"/>
      <point x="96" y="272" type="line"/>
      <point x="167" y="261"/>
      <point x="202" y="224"/>
      <point x="196" y="176" type="curve" smooth="yes"/>
      <point x="190" y="138" type="line" smooth="yes"/>
      <point x="174" y="18"/>
      <point x="234" y="-58"/>
    </contour>
  </outline>
</glyph>
<glyph name="braceright.uc" format="2">
  <advance width="466"/>
  <outline>
    <contour>
      <point x="28" y="-58" type="line"/>
      <point x="72" y="-58" type="line" smooth="yes"/>
      <point x="216" y="-58"/>
      <point x="298" y="18"/>
      <point x="314" y="138" type="curve" smooth="yes"/>
      <point x="319" y="176" type="line" smooth="yes"/>
      <point x="326" y="224"/>
      <point x="372" y="261"/>
      <point x="446" y="272" type="curve"/>
      <point x="462" y="387" type="line"/>
      <point x="392" y="397"/>
      <point x="355" y="433"/>
      <point x="362" y="482" type="curve" smooth="yes"/>
      <point x="368" y="519" type="line" smooth="yes"/>
      <point x="384" y="640"/>
      <point x="323" y="716"/>
      <point x="182" y="716" type="curve" smooth="yes"/>
      <point x="137" y="716" type="line"/>
      <point x="118" y="584" type="line"/>
      <point x="138" y="584" type="line" smooth="yes"/>
      <point x="188" y="584"/>
      <point x="214" y="553"/>
      <point x="206" y="492" type="curve" smooth="yes"/>
      <point x="202" y="466" type="line" smooth="yes"/>
      <point x="193" y="402"/>
      <point x="219" y="348"/>
      <point x="294" y="330" type="curve"/>
      <point x="294" y="328" type="line"/>
      <point x="214" y="307"/>
      <point x="173" y="252"/>
      <point x="164" y="190" type="curve" smooth="yes"/>
      <point x="161" y="166" type="line" smooth="yes"/>
      <point x="153" y="104"/>
      <point x="120" y="74"/>
      <point x="66" y="74" type="curve" smooth="yes"/>
      <point x="46" y="74" type="line"/>
    </contour>
  </outline>
</glyph>
<glyph name="bracketleft.uc" format="2">
  <advance width="387"/>
  <outline>
    <contour>
      <point x="62" y="-58" type="line"/>
      <point x="333" y="-58" type="line"/>
      <point x="352" y="74" type="line"/>
      <point x="241" y="74" type="line"/>
      <point x="312" y="584" type="line"/>
      <point x="423" y="584" type="line"/>
      <point x="442" y="716" type="line"/>
      <point x="171" y="716" type="line"/>
    </contour>
  </outline>
</glyph>
<glyph name="bracketright.uc" format="2">
  <advance width="387"/>
  <outline>
    <contour>
      <point x="38" y="-58" type="line"/>
      <point x="308" y="-58" type="line"/>
      <point x="418" y="716" type="line"/>
      <point x="147" y="716" type="line"/>
      <point x="128" y="584" type="line"/>
      <point x="239" y="584" type="line"/>
      <point x="167" y="74" type="line"/>
      <point x="56" y="74" type="line"/>
    </contour>
  </outline>
</glyph>
<glyph name="dieresiscmb.uc" format="2">
  <anchor x="90" y="642" name="_top"/>
  <anchor x="1" y="16" name="_bottom"/>
  <outline>
    <contour>
      <point x="-49" y="706" type="line"/>
      <point x="70" y="706" type="line"/>
      <point x="87" y="824" type="line"/>
      <point x="-32" y="824" type="line"/>
    </contour>
    <contour>
      <point x="122" y="706" type="line"/>
      <point x="242" y="706" type="line"/>
      <point x="258" y="824" type="line"/>
      <point x="140" y="824" type="line"/>
    </contour>
  </outline>
</glyph>
<glyph name="dollar.lc" format="2">
  <advance width="468"/>
  <outline>
    <contour>
      <point x="202" y="252" type="line"/>
      <point x="338" y="252" type="line"/>
      <point x="384" y="585" type="line"/>
      <point x="248" y="585" type="line"/>
    </contour>
    <contour>
      <point x="153" y="-107" type="line"/>
      <point x="289" y="-107" type="line"/>
      <point x="336" y="232" type="line"/>
      <point x="200" y="232" type="line"/>
    </contour>
    <component base="s" xOffset="14"/>
  </outline>
</glyph>
<glyph name="dollar.lc_AT_weight800" format="2">
  <advance width="468"/>
  <anchor x="230" y="456" name="top"/>
  <outline>
    <contour>
      <point x="229" y="444" type="line"/>
      <point x="365" y="444" type="line"/>
      <point x="385" y="585" type="line"/>
      <point x="249" y="585" type="line"/>
    </contour>
    <contour>
      <point x="153" y="-107" type="line"/>
      <point x="289" y="-107" type="line"/>
      <point x="307" y="18" type="line"/>
      <point x="171" y="18" type="line"/>
    </contour>
    <component base="s" xOffset="14"/>
  </outline>
</glyph>
<glyph name="dollar.sc_AT_weight800" format="2">
  <advance width="498"/>
  <outline>
    <contour>
      <point x="252" y="488" type="line"/>
      <point x="384" y="488" type="line"/>
      <point x="404" y="629" type="line"/>
      <point x="272" y="629" type="line"/>
    </contour>
    <contour>
      <point x="168" y="-107" type="line"/>
      <point x="300" y="-107" type="line"/>
      <point x="318" y="18" type="line"/>
      <point x="186" y="18" type="line"/>
    </contour>
    <component base="S.sc" xOffset="12"/>
  </outline>
</glyph>
<glyph name="dollar_AT_weight800" format="2">
  <advance width="564"/>
  <outline>
    <contour>
      <point x="296" y="616" type="line"/>
      <point x="436" y="616" type="line"/>
      <point x="456" y="762" type="line"/>
      <point x="316" y="762" type="line"/>
    </contour>
    <contour>
      <point x="196" y="-102" type="line"/>
      <point x="336" y="-102" type="line"/>
      <point x="356" y="42" type="line"/>
      <point x="216" y="42" type="line"/>
    </contour>
    <component base="S" xOffset="8"/>
  </outline>
</glyph>
<glyph name="f.salt_connect" format="2">
  <advance width="353"/>
  <outline>
    <contour>
      <point x="88" y="0" type="line"/>
      <point x="258" y="0" type="line"/>
      <point x="304" y="331" type="line"/>
      <point x="386" y="331" type="line"/>
      <point x="406" y="474" type="line"/>
      <point x="324" y="474" type="line"/>
      <point x="328" y="500" type="line" smooth="yes"/>
      <point x="336" y="550"/>
      <point x="366" y="576"/>
      <point x="416" y="576" type="curve" smooth="yes"/>
      <point x="451" y="576"/>
      <point x="489" y="567"/>
      <point x="524" y="548" type="curve"/>
      <point x="546" y="700" type="line"/>
      <point x="502" y="719"/>
      <point x="452" y="727"/>
      <point x="406" y="727" type="curve" smooth="yes"/>
      <point x="272" y="727"/>
      <point x="177" y="638"/>
      <point x="160" y="513" type="curve" smooth="yes"/>
      <point x="154" y="474" type="line"/>
      <point x="88" y="474" type="line"/>
      <point x="68" y="331" type="line"/>
      <point x="134" y="331" type="line"/>
    </contour>
  </outline>
</glyph>
<glyph name="f.salt_noconnect" format="2">
  <advance width="364"/>
  <outline>
    <contour>
      <point x="88" y="0" type="line"/>
      <point x="258" y="0" type="line"/>
      <point x="304" y="331" type="line"/>
      <point x="386" y="331" type="line"/>
      <point x="406" y="474" type="line"/>
      <point x="324" y="474" type="line"/>
      <point x="332" y="529" type="line" smooth="yes"/>
      <point x="336" y="557"/>
      <point x="349" y="578"/>
      <point x="384" y="578" type="curve" smooth="yes"/>
      <point x="400" y="578"/>
      <point x="422" y="576"/>
      <point x="440" y="568" type="curve"/>
      <point x="460" y="716" type="line"/>
      <point x="432" y="725"/>
      <point x="402" y="728"/>
      <point x="370" y="728" type="curve" smooth="yes"/>
      <point x="260" y="728"/>
      <point x="182" y="659"/>
      <point x="167" y="558" type="curve" smooth="yes"/>
      <point x="155" y="474" type="line"/>
      <point x="88" y="474" type="line"/>
      <point x="68" y="331" type="line"/>
      <point x="135" y="331" type="line"/>
    </contour>
  </outline>
</glyph>
<glyph name="five.dnom" format="2">
  <advance width="331"/>
  <outline>
    <contour>
      <point x="154" y="-8" type="curve" smooth="yes"/>
      <point x="255" y="-8"/>
      <point x="323" y="42"/>
      <point x="323" y="122" type="curve" smooth="yes"/>
      <point x="323" y="186"/>
      <point x="278" y="222"/>
      <point x="196" y="222" type="curve" smooth="yes"/>
      <point x="180" y="222"/>
      <point x="164" y="222"/>
      <point x="148" y="220" type="curve"/>
      <point x="156" y="207" type="line"/>
      <point x="164" y="256" type="line"/>
      <point x="322" y="256" type="line"/>
      <point x="336" y="360" type="line"/>
      <point x="88" y="360" type="line"/>
      <point x="43" y="131" type="line"/>
      <point x="72" y="137"/>
      <point x="104" y="140"/>
      <point x="136" y="140" type="curve" smooth="yes"/>
      <point x="170" y="140"/>
      <point x="187" y="132"/>
      <point x="187" y="115" type="curve" smooth="yes"/>
      <point x="187" y="98"/>
      <point x="170" y="88"/>
      <point x="142" y="88" type="curve" smooth="yes"/>
      <point x="106" y="88"/>
      <point x="72" y="97"/>
      <point x="40" y="114" type="curve"/>
      <point x="26" y="11" type="line"/>
      <point x="72" y="-2"/>
      <point x="114" y="-8"/>
    </contour>
  </outline>
</glyph>
<glyph name="five.lc" format="2">
  <advance width="534"/>
  <outline>
    <contour>
      <point x="201" y="-188" type="curve" smooth="yes"/>
      <point x="384" y="-188"/>
      <point x="498" y="-98"/>
      <point x="498" y="54" type="curve" smooth="yes"/>
      <point x="498" y="163"/>
      <point x="418" y="233"/>
      <point x="284" y="233" type="curve" smooth="yes"/>
      <point x="258" y="233"/>
      <point x="232" y="232"/>
      <point x="214" y="228" type="curve"/>
      <point x="228" y="216" type="line"/>
      <point x="247" y="315" type="line"/>
      <point x="512" y="316" type="line"/>
      <point x="535" y="480" type="line"/>
      <point x="129" y="480" type="line"/>
      <point x="52" y="70" type="line"/>
      <point x="105" y="80"/>
      <point x="163" y="88"/>
      <point x="216" y="88" type="curve" smooth="yes"/>
      <point x="280" y="88"/>
      <point x="313" y="66"/>
      <point x="313" y="28" type="curve" smooth="yes"/>
      <point x="313" y="-14"/>
      <point x="277" y="-38"/>
      <point x="206" y="-38" type="curve" smooth="yes"/>
      <point x="146" y="-38"/>
      <point x="93" y="-26"/>
      <point x="43" y="4" type="curve"/>
      <point x="22" y="-148" type="line"/>
      <point x="72" y="-174"/>
      <point x="134" y="-188"/>
    </contour>
  </outline>
</glyph>
<glyph name="four.dnom" format="2">
  <advance width="367"/>
  <outline>
    <contour>
      <point x="181" y="0" type="line"/>
      <point x="301" y="0" type="line"/>
      <point x="310" y="63" type="line"/>
      <point x="352" y="63" type="line"/>
      <point x="365" y="156" type="line"/>
      <point x="323" y="156" type="line"/>
      <point x="352" y="360" type="line"/>
      <point x="195" y="360" type="line"/>
      <point x="47" y="152" type="line"/>
      <point x="35" y="64" type="line"/>
      <point x="190" y="64" type="line"/>
    </contour>
    <contour>
      <point x="203" y="156" type="line"/>
      <point x="139" y="156" type="line"/>
      <point x="219" y="268" type="line"/>
    </contour>
  </outline>
</glyph>
<glyph name="four.lc" format="2">
  <advance width="592"/>
  <outline>
    <contour>
      <point x="294" y="-150" type="line"/>
      <point x="460" y="-150" type="line"/>
      <point x="480" y="0" type="line"/>
      <point x="556" y="0" type="line"/>
      <point x="576" y="142" type="line"/>
      <point x="500" y="142" type="line"/>
      <point x="548" y="480" type="line"/>
      <point x="322" y="480" type="line"/>
      <point x="50" y="118" type="line"/>
      <point x="34" y="0" type="line"/>
      <point x="314" y="0" type="line"/>
    </contour>
    <contour>
      <point x="334" y="142" type="line"/>
      <point x="222" y="142" type="line"/>
      <point x="360" y="328" type="line"/>
    </contour>
  </outline>
</glyph>
<glyph name="one.dnom" format="2">
  <advance width="316"/>
  <outline>
    <contour>
      <point x="28" y="0" type="line"/>
      <point x="292" y="0" type="line"/>
      <point x="306" y="102" type="line"/>
      <point x="242" y="102" type="line"/>
      <point x="278" y="366" type="line"/>
      <point x="73" y="348" type="line"/>
      <point x="58" y="245" type="line"/>
      <point x="128" y="250" type="line"/>
      <point x="108" y="102" type="line"/>
      <point x="43" y="102" type="line"/>
    </contour>
  </outline>
</glyph>
<glyph name="one.lc" format="2">
  <advance width="418"/>
  <outline>
    <contour>
      <point x="51" y="0" type="line"/>
      <point x="382" y="0" type="line"/>
      <point x="402" y="142" type="line"/>
      <point x="321" y="142" type="line"/>
      <point x="370" y="494" type="line"/>
      <point x="102" y="464" type="line"/>
      <point x="82" y="324" type="line"/>
      <point x="178" y="333" type="line"/>
      <point x="151" y="142" type="line"/>
      <point x="70" y="142" type="line"/>
    </contour>
  </outline>
</glyph>
<glyph name="parenleft.uc" format="2">
  <advance width="400"/>
  <outline>
    <contour>
      <point x="189" y="-58" type="curve"/>
      <point x="376" y="-58" type="line"/>
      <point x="302" y="56"/>
      <point x="264" y="172"/>
      <point x="264" y="283" type="curve" smooth="yes"/>
      <point x="264" y="446"/>
      <point x="353" y="615"/>
      <point x="482" y="716" type="curve"/>
      <point x="295" y="716" type="line"/>
      <point x="172" y="620"/>
      <point x="97" y="448"/>
      <point x="97" y="283" type="curve" smooth="yes"/>
      <point x="97" y="158"/>
      <point x="128" y="42"/>
    </contour>
  </outline>
</glyph>
<glyph name="parenright.uc" format="2">
  <advance width="401"/>
  <outline>
    <contour>
      <point x="12" y="-58" type="curve"/>
      <point x="199" y="-58" type="line"/>
      <point x="322" y="42"/>
      <point x="397" y="210"/>
      <point x="397" y="380" type="curve" smooth="yes"/>
      <point x="397" y="494"/>
      <point x="362" y="622"/>
      <point x="304" y="716" type="curve"/>
      <point x="117" y="716" type="line"/>
      <point x="186" y="612"/>
      <point x="230" y="484"/>
      <point x="230" y="380" type="curve" smooth="yes"/>
      <point x="230" y="222"/>
      <point x="147" y="54"/>
    </contour>
  </outline>
</glyph>
<glyph name="seven.dnom" format="2">
  <advance width="335"/>
  <outline>
    <contour>
      <point x="52" y="0" type="line"/>
      <point x="189" y="0" type="line"/>
      <point x="352" y="276" type="line"/>
      <point x="364" y="360" type="line"/>
      <point x="73" y="360" type="line"/>
      <point x="58" y="251" type="line"/>
      <point x="258" y="251" type="line"/>
      <point x="237" y="306" type="line"/>
    </contour>
  </outline>
</glyph>
<glyph name="seven.lc" format="2">
  <advance width="522"/>
  <outline>
    <contour>
      <point x="54" y="-182" type="line" smooth="yes"/>
      <point x="238" y="-182" type="line" smooth="yes"/>
      <point x="538" y="355" type="line" smooth="yes"/>
      <point x="555" y="480" type="line" smooth="yes"/>
      <point x="104" y="480" type="line" smooth="yes"/>
      <point x="80" y="312" type="line" smooth="yes"/>
      <point x="434" y="312" type="line" smooth="yes"/>
      <point x="367" y="356" type="line" smooth="yes"/>
    </contour>
  </outline>
</glyph>
<glyph name="three.dnom" format="2">
  <advance width="327"/>
  <outline>
    <contour>
      <point x="154" y="-8" type="curve" smooth="yes"/>
      <point x="255" y="-8"/>
      <point x="316" y="35"/>
      <point x="316" y="104" type="curve" smooth="yes"/>
      <point x="316" y="145"/>
      <point x="286" y="176"/>
      <point x="236" y="184" type="curve"/>
      <point x="236" y="180" type="line"/>
      <point x="294" y="190"/>
      <point x="334" y="226"/>
      <point x="334" y="279" type="curve" smooth="yes"/>
      <point x="334" y="333"/>
      <point x="284" y="368"/>
      <point x="200" y="368" type="curve" smooth="yes"/>
      <point x="161" y="368"/>
      <point x="122" y="362"/>
      <point x="81" y="352" type="curve"/>
      <point x="66" y="246" type="line"/>
      <point x="98" y="260"/>
      <point x="126" y="266"/>
      <point x="156" y="266" type="curve" smooth="yes"/>
      <point x="182" y="266"/>
      <point x="195" y="259"/>
      <point x="195" y="246" type="curve" smooth="yes"/>
      <point x="195" y="230"/>
      <point x="174" y="221"/>
      <point x="139" y="221" type="curve" smooth="yes"/>
      <point x="117" y="221" type="line"/>
      <point x="106" y="139" type="line"/>
      <point x="132" y="139" type="line" smooth="yes"/>
      <point x="167" y="139"/>
      <point x="184" y="132"/>
      <point x="184" y="118" type="curve" smooth="yes"/>
      <point x="184" y="104"/>
      <point x="166" y="94"/>
      <point x="140" y="94" type="curve" smooth="yes"/>
      <point x="104" y="94"/>
      <point x="73" y="102"/>
      <point x="40" y="116" type="curve"/>
      <point x="26" y="10" type="line"/>
      <point x="72" y="-3"/>
      <point x="114" y="-8"/>
    </contour>
  </outline>
</glyph>
<glyph name="three.lc" format="2">
  <advance width="502"/>
  <outline>
    <contour>
      <point x="216" y="-186" type="curve" smooth="yes"/>
      <point x="374" y="-186"/>
      <point x="466" y="-116"/>
      <point x="466" y="10" type="curve" smooth="yes"/>
      <point x="466" y="89"/>
      <point x="418" y="144"/>
      <point x="337" y="160" type="curve"/>
      <point x="338" y="148" type="line"/>
      <point x="437" y="166"/>
      <point x="502" y="246"/>
      <point x="502" y="329" type="curve" smooth="yes"/>
      <point x="502" y="438"/>
      <point x="420" y="492"/>
      <point x="300" y="492" type="curve" smooth="yes"/>
      <point x="234" y="492"/>
      <point x="179" y="481"/>
      <point x="115" y="456" type="curve"/>
      <point x="93" y="294" type="line"/>
      <point x="146" y="324"/>
      <point x="195" y="338"/>
      <point x="247" y="338" type="curve" smooth="yes"/>
      <point x="294" y="338"/>
      <point x="319" y="320"/>
      <point x="319" y="288" type="curve" smooth="yes"/>
      <point x="319" y="247"/>
      <point x="281" y="222"/>
      <point x="210" y="222" type="curve" smooth="yes"/>
      <point x="169" y="222" type="line"/>
      <point x="150" y="82" type="line"/>
      <point x="196" y="82" type="line" smooth="yes"/>
      <point x="257" y="82"/>
      <point x="291" y="60"/>
      <point x="291" y="25" type="curve" smooth="yes"/>
      <point x="291" y="-12"/>
      <point x="259" y="-32"/>
      <point x="201" y="-32" type="curve" smooth="yes"/>
      <point x="140" y="-32"/>
      <point x="86" y="-17"/>
      <point x="38" y="12" type="curve"/>
      <point x="16" y="-144" type="line"/>
      <point x="78" y="-174"/>
      <point x="141" y="-186"/>
    </contour>
  </outline>
</glyph>
<glyph name="two.dnom" format="2">
  <advance width="327"/>
  <outline>
    <contour>
      <point x="24" y="0" type="line"/>
      <point x="301" y="0" type="line"/>
      <point x="316" y="104" type="line"/>
      <point x="92" y="104" type="line"/>
      <point x="98" y="86" type="line"/>
      <point x="248" y="114"/>
      <point x="340" y="179"/>
      <point x="340" y="266" type="curve" smooth="yes"/>
      <point x="340" y="332"/>
      <point x="287" y="368"/>
      <point x="200" y="368" type="curve" smooth="yes"/>
      <point x="157" y="368"/>
      <point x="117" y="361"/>
      <point x="78" y="348" type="curve"/>
      <point x="62" y="234" type="line"/>
      <point x="94" y="253"/>
      <point x="125" y="262"/>
      <point x="154" y="262" type="curve" smooth="yes"/>
      <point x="186" y="262"/>
      <point x="206" y="253"/>
      <point x="206" y="230" type="curve" smooth="yes"/>
      <point x="206" y="194"/>
      <point x="150" y="161"/>
      <point x="42" y="127" type="curve"/>
    </contour>
  </outline>
</glyph>
<glyph name="two.lc" format="2">
  <advance width="460"/>
  <outline>
    <contour>
      <point x="38" y="0" type="line"/>
      <point x="420" y="0" type="line"/>
      <point x="440" y="144" type="line"/>
      <point x="132" y="144" type="line"/>
      <point x="134" y="104" type="line"/>
      <point x="348" y="140"/>
      <point x="468" y="222"/>
      <point x="468" y="348" type="curve" smooth="yes"/>
      <point x="468" y="444"/>
      <point x="403" y="492"/>
      <point x="275" y="492" type="curve" smooth="yes"/>
      <point x="218" y="492"/>
      <point x="166" y="482"/>
      <point x="112" y="467" type="curve"/>
      <point x="90" y="316" type="line"/>
      <point x="136" y="335"/>
      <point x="184" y="346"/>
      <point x="232" y="346" type="curve" smooth="yes"/>
      <point x="274" y="346"/>
      <point x="296" y="330"/>
      <point x="296" y="300" type="curve" smooth="yes"/>
      <point x="296" y="251"/>
      <point x="235" y="206"/>
      <point x="62" y="174" type="curve"/>
    </contour>
  </outline>
</glyph>
<glyph name="zero.dnom" format="2">
  <advance width="401"/>
  <anchor x="364" y="480" name="top"/>
  <outline>
    <contour>
      <point x="214" y="-9" type="curve" smooth="yes"/>
      <point x="325" y="-9"/>
      <point x="403" y="78"/>
      <point x="403" y="206" type="curve" smooth="yes"/>
      <point x="403" y="303"/>
      <point x="339" y="369"/>
      <point x="238" y="369" type="curve" smooth="yes"/>
      <point x="127" y="369"/>
      <point x="48" y="282"/>
      <point x="48" y="154" type="curve" smooth="yes"/>
      <point x="48" y="57"/>
      <point x="114" y="-9"/>
    </contour>
    <contour>
      <point x="220" y="106" type="curve" smooth="yes"/>
      <point x="195" y="106"/>
      <point x="176" y="126"/>
      <point x="176" y="164" type="curve" smooth="yes"/>
      <point x="176" y="220"/>
      <point x="199" y="254"/>
      <point x="232" y="254" type="curve" smooth="yes"/>
      <point x="257" y="254"/>
      <point x="276" y="232"/>
      <point x="276" y="196" type="curve" smooth="yes"/>
      <point x="276" y="140"/>
      <point x="252" y="106"/>
    </contour>
  </outline>
</glyph>
<glyph name="zero.lc" format="2">
  <advance width="594"/>
  <outline>
    <contour>
      <point x="317" y="-11" type="curve" smooth="yes"/>
      <point x="476" y="-11"/>
      <point x="594" y="102"/>
      <point x="594" y="266" type="curve" smooth="yes"/>
      <point x="594" y="406"/>
      <point x="488" y="493"/>
      <point x="345" y="493" type="curve" smooth="yes"/>
      <point x="186" y="493"/>
      <point x="68" y="380"/>
      <point x="68" y="213" type="curve" smooth="yes"/>
      <point x="68" y="74"/>
      <point x="174" y="-11"/>
    </contour>
    <contour>
      <point x="324" y="144" type="curve" smooth="yes"/>
      <point x="274" y="144"/>
      <point x="242" y="178"/>
      <point x="242" y="226" type="curve" smooth="yes"/>
      <point x="242" y="291"/>
      <point x="282" y="339"/>
      <point x="338" y="339" type="curve" smooth="yes"/>
      <point x="388" y="339"/>
      <point x="419" y="306"/>
      <point x="419" y="254" type="curve" smooth="yes"/>
      <point x="419" y="191"/>
      <point x="380" y="144"/>
    </contour>
  </outline>
</glyph>
<glyph name="zero.lc_salt_slash" format="2">
  <advance width="594"/>
  <outline>
    <contour>
      <point x="317" y="-13" type="curve" smooth="yes"/>
      <point x="476" y="-13"/>
      <point x="594" y="100"/>
      <point x="594" y="264" type="curve" smooth="yes"/>
      <point x="594" y="404"/>
      <point x="488" y="491"/>
      <point x="345" y="491" type="curve" smooth="yes"/>
      <point x="186" y="491"/>
      <point x="68" y="378"/>
      <point x="68" y="211" type="curve" smooth="yes"/>
      <point x="68" y="72"/>
      <point x="174" y="-13"/>
    </contour>
    <contour>
      <point x="242" y="224" type="curve" smooth="yes"/>
      <point x="242" y="289"/>
      <point x="282" y="337"/>
      <point x="338" y="337" type="curve" smooth="yes"/>
      <point x="342" y="337"/>
      <point x="346" y="337"/>
      <point x="350" y="336" type="curve"/>
      <point x="252" y="182" type="line"/>
      <point x="246" y="194"/>
      <point x="242" y="208"/>
    </contour>
    <contour>
      <point x="324" y="142" type="curve" smooth="yes"/>
      <point x="320" y="142"/>
      <point x="317" y="142"/>
      <point x="314" y="142" type="curve"/>
      <point x="410" y="296" type="line"/>
      <point x="416" y="283"/>
      <point x="419" y="268"/>
      <point x="419" y="252" type="curve" smooth="yes"/>
      <point x="419" y="189"/>
      <point x="380" y="142"/>
    </contour>
  </outline>
</glyph>
<glyph name="zero.salt_slash" format="2">
  <advance width="657"/>
  <outline>
    <contour>
      <point x="346" y="-16" type="curve" smooth="yes"/>
      <point x="532" y="-16"/>
      <point x="658" y="148"/>
      <point x="658" y="392" type="curve" smooth="yes"/>
      <point x="658" y="562"/>
      <point x="558" y="676"/>
      <point x="396" y="676" type="curve" smooth="yes"/>
      <point x="209" y="676"/>
      <point x="84" y="512"/>
      <point x="84" y="266" type="curve" smooth="yes"/>
      <point x="84" y="92"/>
      <point x="184" y="-16"/>
    </contour>
    <contour>
      <point x="266" y="272" type="curve" smooth="yes"/>
      <point x="266" y="410"/>
      <point x="314" y="516"/>
      <point x="394" y="516" type="curve" smooth="yes"/>
      <point x="410" y="516"/>
      <point x="424" y="510"/>
      <point x="436" y="498" type="curve"/>
      <point x="269" y="230" type="line"/>
      <point x="267" y="242"/>
      <point x="266" y="256"/>
    </contour>
    <contour>
      <point x="349" y="144" type="curve" smooth="yes"/>
      <point x="335" y="144"/>
      <point x="322" y="148"/>
      <point x="312" y="154" type="curve"/>
      <point x="474" y="416" type="line"/>
      <point x="476" y="406"/>
      <point x="476" y="395"/>
      <point x="476" y="384" type="curve" smooth="yes"/>
      <point x="476" y="242"/>
      <point x="424" y="144"/>
    </contour>
  </outline>
</glyph>
<glyph name="zero.sc_salt_slash" format="2">
  <advance width="578"/>
  <outline>
    <contour>
      <point x="302" y="-10" type="curve" smooth="yes"/>
      <point x="462" y="-10"/>
      <point x="581" y="118"/>
      <point x="581" y="288" type="curve" smooth="yes"/>
      <point x="581" y="438"/>
      <point x="488" y="530"/>
      <point x="352" y="530" type="curve" smooth="yes"/>
      <point x="192" y="530"/>
      <point x="72" y="403"/>
      <point x="72" y="232" type="curve" smooth="yes"/>
      <point x="72" y="82"/>
      <point x="166" y="-10"/>
    </contour>
    <contour>
      <point x="246" y="230" type="curve" smooth="yes"/>
      <point x="246" y="322"/>
      <point x="282" y="384"/>
      <point x="341" y="384" type="curve" smooth="yes"/>
      <point x="348" y="384"/>
      <point x="354" y="382"/>
      <point x="359" y="380" type="curve"/>
      <point x="248" y="202" type="line"/>
      <point x="247" y="214"/>
      <point x="246" y="222"/>
    </contour>
    <contour>
      <point x="312" y="136" type="curve" smooth="yes"/>
      <point x="305" y="136"/>
      <point x="298" y="138"/>
      <point x="293" y="140" type="curve"/>
      <point x="404" y="322" type="line"/>
      <point x="406" y="312"/>
      <point x="408" y="302"/>
      <point x="408" y="290" type="curve" smooth="yes"/>
      <point x="408" y="198"/>
      <point x="371" y="136"/>
    </contour>
  </outline>
</glyph>
<glyph name="zero.tab_lc_salt_slash" format="2">
  <advance width="650"/>
  <outline>
    <contour>
      <point x="344" y="-11" type="curve" smooth="yes"/>
      <point x="504" y="-11"/>
      <point x="622" y="102"/>
      <point x="622" y="266" type="curve" smooth="yes"/>
      <point x="622" y="406"/>
      <point x="515" y="493"/>
      <point x="372" y="493" type="curve" smooth="yes"/>
      <point x="214" y="493"/>
      <point x="95" y="380"/>
      <point x="95" y="213" type="curve" smooth="yes"/>
      <point x="95" y="74"/>
      <point x="202" y="-11"/>
    </contour>
    <contour>
      <point x="270" y="226" type="curve" smooth="yes"/>
      <point x="270" y="291"/>
      <point x="310" y="339"/>
      <point x="366" y="339" type="curve" smooth="yes"/>
      <point x="370" y="339"/>
      <point x="375" y="339"/>
      <point x="380" y="338" type="curve"/>
      <point x="280" y="184" type="line"/>
      <point x="274" y="196"/>
      <point x="270" y="210"/>
    </contour>
    <contour>
      <point x="352" y="144" type="curve" smooth="yes"/>
      <point x="347" y="144"/>
      <point x="342" y="144"/>
      <point x="338" y="144" type="curve"/>
      <point x="438" y="298" type="line"/>
      <point x="444" y="286"/>
      <point x="446" y="271"/>
      <point x="446" y="254" type="curve" smooth="yes"/>
      <point x="446" y="191"/>
      <point x="408" y="144"/>
    </contour>
  </outline>
</glyph>
<glyph name="zero.tab_salt_slash" format="2">
  <advance width="650"/>
  <outline>
    <contour>
      <point x="346" y="-16" type="curve" smooth="yes"/>
      <point x="533" y="-16"/>
      <point x="658" y="148"/>
      <point x="658" y="392" type="curve" smooth="yes"/>
      <point x="658" y="562"/>
      <point x="559" y="676"/>
      <point x="397" y="676" type="curve" smooth="yes"/>
      <point x="210" y="676"/>
      <point x="84" y="512"/>
      <point x="84" y="266" type="curve" smooth="yes"/>
      <point x="84" y="92"/>
      <point x="185" y="-16"/>
    </contour>
    <contour>
      <point x="266" y="272" type="curve" smooth="yes"/>
      <point x="266" y="410"/>
      <point x="315" y="516"/>
      <point x="394" y="516" type="curve" smooth="yes"/>
      <point x="406" y="516"/>
      <point x="417" y="512"/>
      <point x="427" y="508" type="curve"/>
      <point x="268" y="252" type="line"/>
      <point x="267" y="258"/>
      <point x="266" y="264"/>
    </contour>
    <contour>
      <point x="350" y="144" type="curve" smooth="yes"/>
      <point x="336" y="144"/>
      <point x="324" y="147"/>
      <point x="314" y="152" type="curve"/>
      <point x="474" y="412" type="line"/>
      <point x="476" y="399"/>
      <point x="476" y="392"/>
      <point x="476" y="384" type="curve" smooth="yes"/>
      <point x="476" y="242"/>
      <point x="424" y="144"/>
    </contour>
  </outline>
</glyph>
